UniversLTStd.ufo
<glyph name="quotedbl" format="1">
  <advance width="400"/>
  <unicode hex="0022"/>
  <outline>
    <contour>
      <point x="76" y="692" type="line"/>
      <point x="159" y="692" type="line"/>
      <point x="145" y="446" type="line"/>
      <point x="91" y="446" type="line"/>
    </contour>
    <contour>
      <point x="241" y="692" type="line"/>
      <point x="324" y="692" type="line"/>
      <point x="309" y="446" type="line"/>
      <point x="255" y="446" type="line"/>
    </contour>
  </outline>
</glyph>
<glyph name="numbersign" format="1">
  <advance width="556"/>
  <unicode hex="0023"/>
  <outline>
    <contour>
      <point x="5" y="197" type="line"/>
      <point x="6" y="266" type="line"/>
      <point x="118" y="266" type="line"/>
      <point x="146" y="415" type="line"/>
      <point x="46" y="415" type="line"/>
      <point x="46" y="484" type="line"/>
      <point x="159" y="484" type="line"/>
      <point x="197" y="692" type="line"/>
      <point x="278" y="692" type="line"/>
      <point x="239" y="484" type="line"/>
      <point x="361" y="484" type="line"/>
      <point x="399" y="692" type="line"/>
      <point x="480" y="692" type="line"/>
      <point x="441" y="484" type="line"/>
      <point x="541" y="484" type="line"/>
      <point x="541" y="415" type="line"/>
      <point x="428" y="415" type="line"/>
      <point x="401" y="266" type="line"/>
      <point x="500" y="266" type="line"/>
      <point x="500" y="197" type="line"/>
      <point x="388" y="197" type="line"/>
      <point x="351" y="0" type="line"/>
      <point x="271" y="0" type="line"/>
      <point x="307" y="197" type="line"/>
      <point x="186" y="197" type="line"/>
      <point x="149" y="0" type="line"/>
      <point x="69" y="0" type="line"/>
      <point x="105" y="197" type="line"/>
    </contour>
    <contour>
      <point x="199" y="266" type="line"/>
      <point x="320" y="266" type="line"/>
      <point x="348" y="415" type="line"/>
      <point x="226" y="415" type="line"/>
    </contour>
  </outline>
</glyph>
<glyph name="quotesingle" format="1">
  <advance width="278"/>
  <unicode hex="0027"/>
  <outline>
    <contour>
      <point x="98" y="692" type="line"/>
      <point x="181" y="692" type="line"/>
      <point x="166" y="446" type="line"/>
      <point x="112" y="446" type="line"/>
    </contour>
  </outline>
</glyph>
<glyph name="plus" format="1">
  <advance width="584"/>
  <unicode hex="002B"/>
  <outline>
    <contour>
      <point x="250" y="0" type="line"/>
      <point x="250" y="213" type="line"/>
      <point x="37" y="213" type="line"/>
      <point x="37" y="290" type="line"/>
      <point x="250" y="290" type="line"/>
      <point x="250" y="503" type="line"/>
      <point x="334" y="503" type="line"/>
      <point x="334" y="290" type="line"/>
      <point x="547" y="290" type="line"/>
      <point x="547" y="213" type="line"/>
      <point x="334" y="213" type="line"/>
      <point x="334" y="0" type="line"/>
    </contour>
  </outline>
</glyph>
<glyph name="zero" format="1">
  <advance width="556"/>
  <unicode hex="0030"/>
  <outline>
    <contour>
      <point x="44" y="338" type="curve" smooth="yes"/>
      <point x="44" y="441"/>
      <point x="56" y="706"/>
      <point x="276" y="706" type="curve" smooth="yes"/>
      <point x="483" y="706"/>
      <point x="508" y="484"/>
      <point x="508" y="354" type="curve" smooth="yes"/>
      <point x="508" y="190"/>
      <point x="475" y="98"/>
      <point x="412" y="39" type="curve" smooth="yes"/>
      <point x="363" y="-7"/>
      <point x="305" y="-14"/>
      <point x="274" y="-14" type="curve" smooth="yes"/>
      <point x="182" y="-14"/>
      <point x="119" y="40"/>
      <point x="89" y="101" type="curve" smooth="yes"/>
      <point x="66" y="147"/>
      <point x="44" y="214"/>
    </contour>
    <contour>
      <point x="140" y="343" type="curve" smooth="yes"/>
      <point x="140" y="189"/>
      <point x="170" y="69"/>
      <point x="275" y="69" type="curve" smooth="yes"/>
      <point x="391" y="69"/>
      <point x="411" y="221"/>
      <point x="411" y="345" type="curve" smooth="yes"/>
      <point x="411" y="511"/>
      <point x="382" y="626"/>
      <point x="277" y="626" type="curve" smooth="yes"/>
      <point x="156" y="626"/>
      <point x="140" y="467"/>
    </contour>
  </outline>
</glyph>
<glyph name="two" format="1">
  <advance width="556"/>
  <unicode hex="0032"/>
  <outline>
    <contour>
      <point x="53" y="0" type="line"/>
      <point x="53" y="91" type="line"/>
      <point x="234" y="269" type="line" smooth="yes"/>
      <point x="272" y="306"/>
      <point x="310" y="346"/>
      <point x="341" y="388" type="curve" smooth="yes"/>
      <point x="381" y="443"/>
      <point x="392" y="474"/>
      <point x="392" y="511" type="curve" smooth="yes"/>
      <point x="392" y="545"/>
      <point x="380" y="624"/>
      <point x="281" y="624" type="curve" smooth="yes"/>
      <point x="170" y="624"/>
      <point x="168" y="529"/>
      <point x="168" y="503" type="curve"/>
      <point x="63" y="503" type="line"/>
      <point x="64" y="537"/>
      <point x="67" y="603"/>
      <point x="127" y="655" type="curve" smooth="yes"/>
      <point x="175" y="696"/>
      <point x="233" y="705"/>
      <point x="277" y="705" type="curve" smooth="yes"/>
      <point x="383" y="705"/>
      <point x="491" y="651"/>
      <point x="491" y="503" type="curve" smooth="yes"/>
      <point x="491" y="459"/>
      <point x="488" y="425"/>
      <point x="413" y="330" type="curve" smooth="yes"/>
      <point x="393" y="305"/>
      <point x="305" y="214"/>
      <point x="285" y="194" type="curve" smooth="yes"/>
      <point x="164" y="79" type="line"/>
      <point x="493" y="79" type="line"/>
      <point x="493" y="0" type="line"/>
    </contour>
  </outline>
</glyph>
<glyph name="three" format="1">
  <advance width="556"/>
  <unicode hex="0033"/>
  <outline>
    <contour>
      <point x="38" y="178" type="curve"/>
      <point x="144" y="178" type="line"/>
      <point x="143" y="112"/>
      <point x="186" y="65"/>
      <point x="271" y="65" type="curve" smooth="yes"/>
      <point x="368" y="65"/>
      <point x="409" y="127"/>
      <point x="409" y="188" type="curve" smooth="yes"/>
      <point x="409" y="261"/>
      <point x="360" y="299"/>
      <point x="309" y="310" type="curve" smooth="yes"/>
      <point x="273" y="317"/>
      <point x="248" y="316"/>
      <point x="213" y="315" type="curve"/>
      <point x="213" y="396" type="line"/>
      <point x="282" y="390"/>
      <point x="398" y="404"/>
      <point x="398" y="516" type="curve" smooth="yes"/>
      <point x="398" y="594"/>
      <point x="345" y="625"/>
      <point x="276" y="625" type="curve" smooth="yes"/>
      <point x="224" y="625"/>
      <point x="159" y="602"/>
      <point x="150" y="516" type="curve"/>
      <point x="49" y="516" type="line"/>
      <point x="55" y="688"/>
      <point x="217" y="705"/>
      <point x="273" y="705" type="curve" smooth="yes"/>
      <point x="424" y="705"/>
      <point x="499" y="614"/>
      <point x="499" y="518" type="curve" smooth="yes"/>
      <point x="499" y="461"/>
      <point x="468" y="379"/>
      <point x="361" y="355" type="curve"/>
      <point x="509" y="334"/>
      <point x="509" y="201"/>
      <point x="509" y="187" type="curve" smooth="yes"/>
      <point x="509" y="90"/>
      <point x="430" y="-17"/>
      <point x="269" y="-17" type="curve" smooth="yes"/>
      <point x="196" y="-17"/>
      <point x="123" y="4"/>
      <point x="79" y="55" type="curve" smooth="yes"/>
      <point x="40" y="99"/>
      <point x="39" y="149"/>
    </contour>
  </outline>
</glyph>
<glyph name="four" format="1">
  <advance width="556"/>
  <unicode hex="0034"/>
  <outline>
    <contour>
      <point x="340" y="0" type="line"/>
      <point x="340" y="150" type="line"/>
      <point x="28" y="150" type="line"/>
      <point x="28" y="269" type="line"/>
      <point x="328" y="701" type="line"/>
      <point x="436" y="701" type="line"/>
      <point x="436" y="231" type="line"/>
      <point x="537" y="231" type="line"/>
      <point x="537" y="150" type="line"/>
      <point x="436" y="150" type="line"/>
      <point x="436" y="0" type="line"/>
    </contour>
    <contour>
      <point x="104" y="231" type="line"/>
      <point x="343" y="231" type="line"/>
      <point x="343" y="596" type="line"/>
    </contour>
  </outline>
</glyph>
<glyph name="six" format="1">
  <advance width="556"/>
  <unicode hex="0036"/>
  <outline>
    <contour>
      <point x="510" y="528" type="curve"/>
      <point x="407" y="528" type="line"/>
      <point x="406" y="609"/>
      <point x="346" y="631"/>
      <point x="302" y="631" type="curve" smooth="yes"/>
      <point x="202" y="631"/>
      <point x="158" y="545"/>
      <point x="149" y="361" type="curve"/>
      <point x="171" y="393"/>
      <point x="209" y="449"/>
      <point x="310" y="449" type="curve" smooth="yes"/>
      <point x="423" y="449"/>
      <point x="519" y="374"/>
      <point x="519" y="227" type="curve" smooth="yes"/>
      <point x="519" y="66"/>
      <point x="404" y="-15"/>
      <point x="285" y="-15" type="curve" smooth="yes"/>
      <point x="218" y="-15"/>
      <point x="151" y="12"/>
      <point x="114" y="60" type="curve" smooth="yes"/>
      <point x="63" y="128"/>
      <point x="51" y="227"/>
      <point x="51" y="315" type="curve" smooth="yes"/>
      <point x="51" y="466"/>
      <point x="88" y="706"/>
      <point x="307" y="706" type="curve" smooth="yes"/>
      <point x="398" y="706"/>
      <point x="449" y="666"/>
      <point x="473" y="640" type="curve" smooth="yes"/>
      <point x="508" y="599"/>
      <point x="509" y="555"/>
    </contour>
    <contour>
      <point x="289" y="61" type="curve" smooth="yes"/>
      <point x="351" y="61"/>
      <point x="423" y="105"/>
      <point x="423" y="218" type="curve" smooth="yes"/>
      <point x="423" y="267"/>
      <point x="409" y="372"/>
      <point x="294" y="372" type="curve" smooth="yes"/>
      <point x="201" y="372"/>
      <point x="156" y="296"/>
      <point x="156" y="217" type="curve" smooth="yes"/>
      <point x="156" y="127"/>
      <point x="212" y="61"/>
    </contour>
  </outline>
</glyph>
<glyph name="seven" format="1">
  <advance width="556"/>
  <unicode hex="0037"/>
  <outline>
    <contour>
      <point x="35" y="609" type="line"/>
      <point x="35" y="692" type="line"/>
      <point x="492" y="692" type="line"/>
      <point x="492" y="608" type="line"/>
      <point x="238" y="0" type="line"/>
      <point x="125" y="0" type="line"/>
      <point x="391" y="609" type="line"/>
    </contour>
  </outline>
</glyph>
<glyph name="nine" format="1">
  <advance width="556"/>
  <unicode hex="0039"/>
  <outline>
    <contour>
      <point x="46" y="165" type="curve"/>
      <point x="151" y="165" type="line"/>
      <point x="151" y="105"/>
      <point x="184" y="63"/>
      <point x="262" y="63" type="curve" smooth="yes"/>
      <point x="414" y="63"/>
      <point x="415" y="242"/>
      <point x="410" y="350" type="curve"/>
      <point x="374" y="282"/>
      <point x="309" y="263"/>
      <point x="255" y="263" type="curve" smooth="yes"/>
      <point x="145" y="263"/>
      <point x="44" y="337"/>
      <point x="44" y="482" type="curve" smooth="yes"/>
      <point x="44" y="641"/>
      <point x="157" y="705"/>
      <point x="266" y="705" type="curve" smooth="yes"/>
      <point x="340" y="705"/>
      <point x="449" y="675"/>
      <point x="489" y="535" type="curve" smooth="yes"/>
      <point x="501" y="493"/>
      <point x="509" y="443"/>
      <point x="509" y="349" type="curve" smooth="yes"/>
      <point x="509" y="247"/>
      <point x="508" y="-16"/>
      <point x="254" y="-16" type="curve" smooth="yes"/>
      <point x="160" y="-16"/>
      <point x="50" y="21"/>
    </contour>
    <contour>
      <point x="399" y="480" type="curve" smooth="yes"/>
      <point x="399" y="580"/>
      <point x="334" y="630"/>
      <point x="266" y="630" type="curve" smooth="yes"/>
      <point x="185" y="630"/>
      <point x="142" y="563"/>
      <point x="142" y="481" type="curve" smooth="yes"/>
      <point x="142" y="391"/>
      <point x="197" y="339"/>
      <point x="273" y="339" type="curve" smooth="yes"/>
      <point x="351" y="339"/>
      <point x="399" y="397"/>
    </contour>
  </outline>
</glyph>
<glyph name="semicolon" format="1">
  <advance width="278"/>
  <unicode hex="003B"/>
  <outline>
    <contour>
      <point x="95" y="387" type="line"/>
      <point x="95" y="507" type="line"/>
      <point x="211" y="507" type="line"/>
      <point x="211" y="387" type="line"/>
    </contour>
    <contour>
      <point x="113" y="120" type="line"/>
      <point x="229" y="120" type="line"/>
      <point x="117" y="-126" type="line"/>
      <point x="49" y="-126" type="line"/>
    </contour>
  </outline>
</glyph>
<glyph name="less" format="1">
  <advance width="584"/>
  <unicode hex="003C"/>
  <outline>
    <contour>
      <point x="37" y="210" type="line"/>
      <point x="37" y="292" type="line"/>
      <point x="547" y="492" type="line"/>
      <point x="547" y="406" type="line"/>
      <point x="141" y="251" type="line"/>
      <point x="547" y="97" type="line"/>
      <point x="547" y="10" type="line"/>
    </contour>
  </outline>
</glyph>
<glyph name="greater" format="1">
  <advance width="584"/>
  <unicode hex="003E"/>
  <outline>
    <contour>
      <point x="547" y="210" type="line"/>
      <point x="37" y="10" type="line"/>
      <point x="37" y="97" type="line"/>
      <point x="443" y="251" type="line"/>
      <point x="37" y="406" type="line"/>
      <point x="37" y="492" type="line"/>
      <point x="547" y="292" type="line"/>
    </contour>
  </outline>
</glyph>
<glyph name="question" format="1">
  <advance width="500"/>
  <unicode hex="003F"/>
  <outline>
    <contour>
      <point x="74" y="625" type="curve"/>
      <point x="74" y="715" type="line"/>
      <point x="98" y="723"/>
      <point x="145" y="736"/>
      <point x="216" y="736" type="curve" smooth="yes"/>
      <point x="299" y="736"/>
      <point x="363" y="717"/>
      <point x="403" y="674" type="curve" smooth="yes"/>
      <point x="431" y="644"/>
      <point x="448" y="601"/>
      <point x="448" y="558" type="curve" smooth="yes"/>
      <point x="448" y="479"/>
      <point x="410" y="442"/>
      <point x="327" y="358" type="curve" smooth="yes"/>
      <point x="322" y="353"/>
      <point x="271" y="302"/>
      <point x="271" y="301" type="curve" smooth="yes"/>
      <point x="264" y="291"/>
      <point x="263" y="283"/>
      <point x="263" y="270" type="curve" smooth="yes"/>
      <point x="263" y="164" type="line"/>
      <point x="179" y="164" type="line"/>
      <point x="179" y="270" type="line" smooth="yes"/>
      <point x="179" y="310"/>
      <point x="179" y="316"/>
      <point x="231" y="371" type="curve" smooth="yes"/>
      <point x="308" y="452"/>
      <point x="344" y="491"/>
      <point x="344" y="549" type="curve" smooth="yes"/>
      <point x="344" y="651"/>
      <point x="235" y="653"/>
      <point x="209" y="653" type="curve" smooth="yes"/>
      <point x="195" y="653"/>
      <point x="142" y="653"/>
    </contour>
    <contour>
      <point x="171" y="0" type="line"/>
      <point x="171" y="102" type="line"/>
      <point x="275" y="102" type="line"/>
      <point x="275" y="0" type="line"/>
    </contour>
  </outline>
</glyph>
<glyph name="at" format="1">
  <advance width="1015"/>
  <unicode hex="0040"/>
  <outline>
    <contour>
      <point x="653" y="549" type="line"/>
      <point x="722" y="549" type="line"/>
      <point x="661" y="343" type="line" smooth="yes"/>
      <point x="654" y="318"/>
      <point x="645" y="288"/>
      <point x="645" y="267" type="curve" smooth="yes"/>
      <point x="645" y="230"/>
      <point x="676" y="226"/>
      <point x="689" y="226" type="curve" smooth="yes"/>
      <point x="752" y="226"/>
      <point x="828" y="315"/>
      <point x="828" y="445" type="curve" smooth="yes"/>
      <point x="828" y="616"/>
      <point x="691" y="697"/>
      <point x="541" y="697" type="curve" smooth="yes"/>
      <point x="353" y="697"/>
      <point x="187" y="571"/>
      <point x="187" y="349" type="curve" smooth="yes"/>
      <point x="187" y="151"/>
      <point x="331" y="27"/>
      <point x="528" y="27" type="curve" smooth="yes"/>
      <point x="646" y="27"/>
      <point x="728" y="69"/>
      <point x="803" y="122" type="curve"/>
      <point x="828" y="89" type="line"/>
      <point x="740" y="25"/>
      <point x="651" y="-17"/>
      <point x="525" y="-17" type="curve" smooth="yes"/>
      <point x="301" y="-17"/>
      <point x="141" y="130"/>
      <point x="141" y="352" type="curve" smooth="yes"/>
      <point x="141" y="606"/>
      <point x="341" y="741"/>
      <point x="541" y="741" type="curve" smooth="yes"/>
      <point x="712" y="741"/>
      <point x="875" y="643"/>
      <point x="875" y="440" type="curve" smooth="yes"/>
      <point x="875" y="278"/>
      <point x="766" y="176"/>
      <point x="671" y="176" type="curve" smooth="yes"/>
      <point x="630" y="176"/>
      <point x="591" y="199"/>
      <point x="591" y="246" type="curve" smooth="yes"/>
      <point x="591" y="258"/>
      <point x="593" y="267"/>
      <point x="595" y="274" type="curve"/>
      <point x="583" y="250"/>
      <point x="546" y="176"/>
      <point x="455" y="176" type="curve" smooth="yes"/>
      <point x="377" y="176"/>
      <point x="321" y="233"/>
      <point x="321" y="327" type="curve" smooth="yes"/>
      <point x="321" y="435"/>
      <point x="400" y="564"/>
      <point x="519" y="564" type="curve" smooth="yes"/>
      <point x="549" y="564"/>
      <point x="585" y="556"/>
      <point x="609" y="531" type="curve" smooth="yes"/>
      <point x="626" y="515"/>
      <point x="631" y="498"/>
      <point x="635" y="485" type="curve"/>
    </contour>
    <contour>
      <point x="607" y="436" type="curve" smooth="yes"/>
      <point x="607" y="498"/>
      <point x="563" y="515"/>
      <point x="535" y="515" type="curve" smooth="yes"/>
      <point x="455" y="515"/>
      <point x="402" y="398"/>
      <point x="402" y="322" type="curve" smooth="yes"/>
      <point x="402" y="269"/>
      <point x="425" y="226"/>
      <point x="475" y="226" type="curve" smooth="yes"/>
      <point x="570" y="226"/>
      <point x="607" y="394"/>
    </contour>
  </outline>
</glyph>
<glyph name="B" format="1">
  <advance width="667"/>
  <unicode hex="0042"/>
  <outline>
    <contour>
      <point x="95" y="0" type="line"/>
      <point x="95" y="722" type="line"/>
      <point x="353" y="722" type="line" smooth="yes"/>
      <point x="441" y="722"/>
      <point x="490" y="713"/>
      <point x="535" y="669" type="curve" smooth="yes"/>
      <point x="566" y="639"/>
      <point x="586" y="597"/>
      <point x="586" y="540" type="curve" smooth="yes"/>
      <point x="586" y="421"/>
      <point x="499" y="390"/>
      <point x="464" y="377" type="curve"/>
      <point x="506" y="365"/>
      <point x="608" y="335"/>
      <point x="608" y="197" type="curve" smooth="yes"/>
      <point x="608" y="99"/>
      <point x="545" y="49"/>
      <point x="521" y="33" type="curve" smooth="yes"/>
      <point x="471" y="0"/>
      <point x="415" y="0"/>
      <point x="358" y="0" type="curve" smooth="yes"/>
    </contour>
    <contour>
      <point x="192" y="640" type="line"/>
      <point x="192" y="417" type="line"/>
      <point x="332" y="417" type="line" smooth="yes"/>
      <point x="366" y="417"/>
      <point x="482" y="417"/>
      <point x="482" y="531" type="curve" smooth="yes"/>
      <point x="482" y="640"/>
      <point x="391" y="640"/>
      <point x="336" y="640" type="curve" smooth="yes"/>
    </contour>
    <contour>
      <point x="192" y="331" type="line"/>
      <point x="192" y="81" type="line"/>
      <point x="363" y="81" type="line" smooth="yes"/>
      <point x="442" y="81"/>
      <point x="505" y="123"/>
      <point x="505" y="206" type="curve" smooth="yes"/>
      <point x="505" y="278"/>
      <point x="455" y="331"/>
      <point x="367" y="331" type="curve" smooth="yes"/>
    </contour>
  </outline>
</glyph>
<glyph name="C" format="1">
  <advance width="667"/>
  <unicode hex="0043"/>
  <outline>
    <contour>
      <point x="630" y="527" type="curve"/>
      <point x="523" y="527" type="line"/>
      <point x="519" y="552"/>
      <point x="506" y="652"/>
      <point x="367" y="652" type="curve" smooth="yes"/>
      <point x="193" y="652"/>
      <point x="162" y="474"/>
      <point x="162" y="354" type="curve" smooth="yes"/>
      <point x="162" y="218"/>
      <point x="201" y="71"/>
      <point x="366" y="71" type="curve" smooth="yes"/>
      <point x="410" y="71"/>
      <point x="452" y="82"/>
      <point x="483" y="114" type="curve" smooth="yes"/>
      <point x="509" y="142"/>
      <point x="515" y="173"/>
      <point x="518" y="190" type="curve"/>
      <point x="628" y="190" type="line"/>
      <point x="613" y="48"/>
      <point x="482" y="-11"/>
      <point x="358" y="-11" type="curve" smooth="yes"/>
      <point x="104" y="-11"/>
      <point x="55" y="213"/>
      <point x="55" y="353" type="curve" smooth="yes"/>
      <point x="55" y="505"/>
      <point x="114" y="732"/>
      <point x="371" y="732" type="curve" smooth="yes"/>
      <point x="473" y="732"/>
      <point x="617" y="691"/>
    </contour>
  </outline>
</glyph>
<glyph name="F" format="1">
  <advance width="556"/>
  <unicode hex="0046"/>
  <outline>
    <contour>
      <point x="95" y="0" type="line"/>
      <point x="95" y="722" type="line"/>
      <point x="525" y="722" type="line"/>
      <point x="525" y="637" type="line"/>
      <point x="197" y="637" type="line"/>
      <point x="197" y="412" type="line"/>
      <point x="506" y="412" type="line"/>
      <point x="506" y="328" type="line"/>
      <point x="197" y="328" type="line"/>
      <point x="197" y="0" type="line"/>
    </contour>
  </outline>
</glyph>
<glyph name="G" format="1">
  <advance width="778"/>
  <unicode hex="0047"/>
  <outline>
    <contour>
      <point x="686" y="542" type="curve"/>
      <point x="577" y="542" type="line"/>
      <point x="566" y="609"/>
      <point x="512" y="655"/>
      <point x="414" y="655" type="curve" smooth="yes"/>
      <point x="346" y="655"/>
      <point x="289" y="637"/>
      <point x="251" y="594" type="curve" smooth="yes"/>
      <point x="188" y="524"/>
      <point x="174" y="430"/>
      <point x="174" y="362" type="curve" smooth="yes"/>
      <point x="174" y="301"/>
      <point x="187" y="198"/>
      <point x="240" y="135" type="curve" smooth="yes"/>
      <point x="287" y="81"/>
      <point x="360" y="64"/>
      <point x="432" y="64" type="curve" smooth="yes"/>
      <point x="514" y="64"/>
      <point x="566" y="80"/>
      <point x="589" y="87" type="curve"/>
      <point x="589" y="301" type="line"/>
      <point x="424" y="301" type="line"/>
      <point x="424" y="384" type="line"/>
      <point x="689" y="384" type="line"/>
      <point x="689" y="28" type="line"/>
      <point x="647" y="14"/>
      <point x="555" y="-16"/>
      <point x="432" y="-16" type="curve" smooth="yes"/>
      <point x="299" y="-16"/>
      <point x="221" y="22"/>
      <point x="170" y="74" type="curve" smooth="yes"/>
      <point x="99" y="146"/>
      <point x="69" y="247"/>
      <point x="69" y="349" type="curve" smooth="yes"/>
      <point x="69" y="421"/>
      <point x="87" y="591"/>
      <point x="224" y="683" type="curve" smooth="yes"/>
      <point x="295" y="731"/>
      <point x="389" y="734"/>
      <point x="425" y="734" type="curve" smooth="yes"/>
      <point x="482" y="734"/>
      <point x="569" y="727"/>
      <point x="638" y="657" type="curve" smooth="yes"/>
      <point x="681" y="612"/>
      <point x="684" y="570"/>
    </contour>
  </outline>
</glyph>
<glyph name="H" format="1">
  <advance width="722"/>
  <unicode hex="0048"/>
  <outline>
    <contour>
      <point x="88" y="722" type="line"/>
      <point x="188" y="722" type="line"/>
      <point x="188" y="412" type="line"/>
      <point x="531" y="412" type="line"/>
      <point x="531" y="722" type="line"/>
      <point x="631" y="722" type="line"/>
      <point x="631" y="0" type="line"/>
      <point x="531" y="0" type="line"/>
      <point x="531" y="326" type="line"/>
      <point x="188" y="326" type="line"/>
      <point x="188" y="0" type="line"/>
      <point x="88" y="0" type="line"/>
    </contour>
  </outline>
</glyph>
<glyph name="L" format="1">
  <advance width="556"/>
  <unicode hex="004C"/>
  <outline>
    <contour>
      <point x="93" y="0" type="line"/>
      <point x="93" y="722" type="line"/>
      <point x="192" y="722" type="line"/>
      <point x="192" y="89" type="line"/>
      <point x="528" y="89" type="line"/>
      <point x="528" y="0" type="line"/>
    </contour>
  </outline>
</glyph>
<glyph name="S" format="1">
  <advance width="667"/>
  <unicode hex="0053"/>
  <outline>
    <contour>
      <point x="56" y="211" type="curve"/>
      <point x="160" y="211" type="line"/>
      <point x="162" y="161"/>
      <point x="168" y="68"/>
      <point x="334" y="68" type="curve" smooth="yes"/>
      <point x="484" y="68"/>
      <point x="503" y="161"/>
      <point x="503" y="197" type="curve" smooth="yes"/>
      <point x="503" y="278"/>
      <point x="438" y="294"/>
      <point x="337" y="319" type="curve" smooth="yes"/>
      <point x="227" y="346"/>
      <point x="178" y="358"/>
      <point x="141" y="383" type="curve" smooth="yes"/>
      <point x="82" y="423"/>
      <point x="66" y="477"/>
      <point x="66" y="525" type="curve" smooth="yes"/>
      <point x="66" y="672"/>
      <point x="205" y="736"/>
      <point x="341" y="736" type="curve" smooth="yes"/>
      <point x="389" y="736"/>
      <point x="486" y="728"/>
      <point x="544" y="665" type="curve" smooth="yes"/>
      <point x="584" y="621"/>
      <point x="586" y="572"/>
      <point x="588" y="542" type="curve"/>
      <point x="484" y="542" type="line"/>
      <point x="479" y="632"/>
      <point x="403" y="652"/>
      <point x="332" y="652" type="curve" smooth="yes"/>
      <point x="232" y="652"/>
      <point x="172" y="607"/>
      <point x="172" y="535" type="curve" smooth="yes"/>
      <point x="172" y="471"/>
      <point x="214" y="449"/>
      <point x="302" y="428" type="curve" smooth="yes"/>
      <point x="474" y="384"/>
      <point x="493" y="380"/>
      <point x="535" y="352" type="curve" smooth="yes"/>
      <point x="602" y="308"/>
      <point x="607" y="238"/>
      <point x="607" y="208" type="curve" smooth="yes"/>
      <point x="607" y="80"/>
      <point x="507" y="-17"/>
      <point x="322" y="-17" type="curve" smooth="yes"/>
      <point x="267" y="-17"/>
      <point x="155" y="-8"/>
      <point x="98" y="65" type="curve" smooth="yes"/>
      <point x="57" y="118"/>
      <point x="56" y="176"/>
    </contour>
  </outline>
</glyph>
<glyph name="T" format="1">
  <advance width="611"/>
  <unicode hex="0054"/>
  <outline>
    <contour>
      <point x="362" y="0" type="line"/>
      <point x="263" y="0" type="line"/>
      <point x="263" y="637" type="line"/>
      <point x="21" y="637" type="line"/>
      <point x="21" y="722" type="line"/>
      <point x="604" y="722" type="line"/>
      <point x="604" y="637" type="line"/>
      <point x="362" y="637" type="line"/>
    </contour>
  </outline>
</glyph>
<glyph name="V" format="1">
  <advance width="667"/>
  <unicode hex="0056"/>
  <outline>
    <contour>
      <point x="647" y="722" type="line"/>
      <point x="381" y="0" type="line"/>
      <point x="271" y="0" type="line"/>
      <point x="14" y="722" type="line"/>
      <point x="125" y="722" type="line"/>
      <point x="330" y="105" type="line"/>
      <point x="546" y="722" type="line"/>
    </contour>
  </outline>
</glyph>
<glyph name="Z" format="1">
  <advance width="611"/>
  <unicode hex="005A"/>
  <outline>
    <contour>
      <point x="35" y="0" type="line"/>
      <point x="35" y="100" type="line"/>
      <point x="452" y="634" type="line"/>
      <point x="46" y="634" type="line"/>
      <point x="46" y="722" type="line"/>
      <point x="571" y="722" type="line"/>
      <point x="571" y="623" type="line"/>
      <point x="150" y="88" type="line"/>
      <point x="578" y="88" type="line"/>
      <point x="578" y="0" type="line"/>
    </contour>
  </outline>
</glyph>
<glyph name="bracketleft" format="1">
  <advance width="333"/>
  <unicode hex="005B"/>
  <outline>
    <contour>
      <point x="102" y="-125" type="line"/>
      <point x="102" y="750" type="line"/>
      <point x="275" y="750" type="line"/>
      <point x="275" y="697" type="line"/>
      <point x="181" y="697" type="line"/>
      <point x="181" y="-72" type="line"/>
      <point x="275" y="-72" type="line"/>
      <point x="275" y="-125" type="line"/>
    </contour>
  </outline>
</glyph>
<glyph name="backslash" format="1">
  <advance width="278"/>
  <unicode hex="005C"/>
  <outline>
    <contour>
      <point x="290" y="-16" type="line"/>
      <point x="225" y="-16" type="line"/>
      <point x="-9" y="713" type="line"/>
      <point x="57" y="713" type="line"/>
    </contour>
  </outline>
</glyph>
<glyph name="b" format="1">
  <advance width="611"/>
  <unicode hex="0062"/>
  <outline>
    <contour>
      <point x="182" y="722" type="line"/>
      <point x="182" y="429" type="line"/>
      <point x="195" y="452"/>
      <point x="232" y="515"/>
      <point x="346" y="515" type="curve" smooth="yes"/>
      <point x="396" y="515"/>
      <point x="459" y="503"/>
      <point x="505" y="451" type="curve" smooth="yes"/>
      <point x="530" y="422"/>
      <point x="564" y="372"/>
      <point x="564" y="262" type="curve" smooth="yes"/>
      <point x="564" y="165"/>
      <point x="541" y="112"/>
      <point x="516" y="79" type="curve" smooth="yes"/>
      <point x="476" y="22"/>
      <point x="409" y="-7"/>
      <point x="340" y="-7" type="curve" smooth="yes"/>
      <point x="316" y="-7"/>
      <point x="271" y="-4"/>
      <point x="228" y="25" type="curve" smooth="yes"/>
      <point x="200" y="44"/>
      <point x="189" y="61"/>
      <point x="179" y="76" type="curve"/>
      <point x="177" y="0" type="line"/>
      <point x="86" y="0" type="line"/>
      <point x="88" y="90" type="line"/>
      <point x="88" y="722" type="line"/>
    </contour>
    <contour>
      <point x="465" y="256" type="curve" smooth="yes"/>
      <point x="465" y="306"/>
      <point x="455" y="451"/>
      <point x="324" y="451" type="curve" smooth="yes"/>
      <point x="180" y="451"/>
      <point x="180" y="283"/>
      <point x="180" y="251" type="curve" smooth="yes"/>
      <point x="180" y="218"/>
      <point x="180" y="61"/>
      <point x="320" y="61" type="curve" smooth="yes"/>
      <point x="436" y="61"/>
      <point x="465" y="174"/>
    </contour>
  </outline>
</glyph>
<glyph name="h" format="1">
  <advance width="611"/>
  <unicode hex="0068"/>
  <outline>
    <contour>
      <point x="88" y="0" type="line"/>
      <point x="88" y="721" type="line"/>
      <point x="183" y="721" type="line"/>
      <point x="183" y="428" type="line"/>
      <point x="214" y="481"/>
      <point x="276" y="511"/>
      <point x="346" y="511" type="curve" smooth="yes"/>
      <point x="399" y="511"/>
      <point x="475" y="492"/>
      <point x="504" y="431" type="curve" smooth="yes"/>
      <point x="514" y="411"/>
      <point x="521" y="387"/>
      <point x="521" y="314" type="curve" smooth="yes"/>
      <point x="521" y="0" type="line"/>
      <point x="425" y="0" type="line"/>
      <point x="425" y="297" type="line" smooth="yes"/>
      <point x="425" y="342"/>
      <point x="425" y="439"/>
      <point x="317" y="439" type="curve" smooth="yes"/>
      <point x="247" y="439"/>
      <point x="212" y="396"/>
      <point x="199" y="372" type="curve" smooth="yes"/>
      <point x="183" y="344"/>
      <point x="183" y="297"/>
      <point x="183" y="266" type="curve" smooth="yes"/>
      <point x="183" y="0" type="line"/>
    </contour>
  </outline>
</glyph>
<glyph name="i" format="1">
  <advance width="278"/>
  <unicode hex="0069"/>
  <outline>
    <contour>
      <point x="79" y="617" type="line"/>
      <point x="79" y="720" type="line"/>
      <point x="192" y="720" type="line"/>
      <point x="192" y="617" type="line"/>
    </contour>
    <contour>
      <point x="89" y="0" type="line"/>
      <point x="89" y="502" type="line"/>
      <point x="183" y="502" type="line"/>
      <point x="183" y="0" type="line"/>
    </contour>
  </outline>
</glyph>
<glyph name="j" format="1">
  <advance width="278"/>
  <unicode hex="006A"/>
  <outline>
    <contour>
      <point x="82" y="616" type="line"/>
      <point x="82" y="720" type="line"/>
      <point x="196" y="720" type="line"/>
      <point x="196" y="616" type="line"/>
    </contour>
    <contour>
      <point x="-1" y="-193" type="curve"/>
      <point x="-1" y="-126" type="line"/>
      <point x="73" y="-129"/>
      <point x="91" y="-116"/>
      <point x="91" y="-36" type="curve" smooth="yes"/>
      <point x="91" y="502" type="line"/>
      <point x="185" y="502" type="line"/>
      <point x="185" y="-47" type="line" smooth="yes"/>
      <point x="185" y="-95"/>
      <point x="183" y="-197"/>
      <point x="57" y="-197" type="curve" smooth="yes"/>
      <point x="45" y="-197"/>
      <point x="25" y="-196"/>
    </contour>
  </outline>
</glyph>
<glyph name="l" format="1">
  <advance width="278"/>
  <unicode hex="006C"/>
  <outline>
    <contour>
      <point x="90" y="0" type="line"/>
      <point x="90" y="721" type="line"/>
      <point x="184" y="721" type="line"/>
      <point x="184" y="0" type="line"/>
    </contour>
  </outline>
</glyph>
<glyph name="m" format="1">
  <advance width="944"/>
  <unicode hex="006D"/>
  <outline>
    <contour>
      <point x="87" y="0" type="line"/>
      <point x="87" y="435" type="line"/>
      <point x="85" y="502" type="line"/>
      <point x="180" y="502" type="line"/>
      <point x="180" y="429" type="line"/>
      <point x="228" y="508"/>
      <point x="296" y="515"/>
      <point x="339" y="515" type="curve" smooth="yes"/>
      <point x="450" y="515"/>
      <point x="485" y="458"/>
      <point x="503" y="421" type="curve"/>
      <point x="520" y="449"/>
      <point x="561" y="515"/>
      <point x="672" y="515" type="curve" smooth="yes"/>
      <point x="744" y="515"/>
      <point x="856" y="485"/>
      <point x="856" y="337" type="curve" smooth="yes"/>
      <point x="856" y="0" type="line"/>
      <point x="761" y="0" type="line"/>
      <point x="761" y="322" type="line" smooth="yes"/>
      <point x="761" y="366"/>
      <point x="753" y="385"/>
      <point x="744" y="398" type="curve" smooth="yes"/>
      <point x="728" y="421"/>
      <point x="696" y="442"/>
      <point x="648" y="442" type="curve" smooth="yes"/>
      <point x="587" y="442"/>
      <point x="554" y="407"/>
      <point x="541" y="389" type="curve" smooth="yes"/>
      <point x="519" y="358"/>
      <point x="519" y="303"/>
      <point x="519" y="281" type="curve" smooth="yes"/>
      <point x="519" y="0" type="line"/>
      <point x="424" y="0" type="line"/>
      <point x="424" y="332" type="line" smooth="yes"/>
      <point x="424" y="394"/>
      <point x="388" y="442"/>
      <point x="314" y="442" type="curve" smooth="yes"/>
      <point x="250" y="442"/>
      <point x="215" y="402"/>
      <point x="204" y="387" type="curve" smooth="yes"/>
      <point x="183" y="358"/>
      <point x="182" y="317"/>
      <point x="182" y="285" type="curve" smooth="yes"/>
      <point x="182" y="0" type="line"/>
    </contour>
  </outline>
</glyph>
<glyph name="n" format="1">
  <advance width="611"/>
  <unicode hex="006E"/>
  <outline>
    <contour>
      <point x="91" y="0" type="line"/>
      <point x="91" y="444" type="line"/>
      <point x="90" y="502" type="line"/>
      <point x="184" y="502" type="line"/>
      <point x="185" y="421" type="line"/>
      <point x="196" y="442"/>
      <point x="232" y="512"/>
      <point x="346" y="512" type="curve" smooth="yes"/>
      <point x="391" y="512"/>
      <point x="528" y="495"/>
      <point x="528" y="341" type="curve" smooth="yes"/>
      <point x="528" y="0" type="line"/>
      <point x="432" y="0" type="line"/>
      <point x="432" y="319" type="line" smooth="yes"/>
      <point x="432" y="352"/>
      <point x="428" y="382"/>
      <point x="405" y="405" type="curve" smooth="yes"/>
      <point x="381" y="428"/>
      <point x="348" y="439"/>
      <point x="316" y="439" type="curve" smooth="yes"/>
      <point x="248" y="439"/>
      <point x="185" y="390"/>
      <point x="185" y="289" type="curve" smooth="yes"/>
      <point x="185" y="0" type="line"/>
    </contour>
  </outline>
</glyph>
<glyph name="p" format="1">
  <advance width="611"/>
  <unicode hex="0070"/>
  <outline>
    <contour>
      <point x="85" y="-193" type="line"/>
      <point x="85" y="420" type="line" smooth="yes"/>
      <point x="85" y="442"/>
      <point x="84" y="454"/>
      <point x="82" y="502" type="curve"/>
      <point x="177" y="502" type="line"/>
      <point x="179" y="419" type="line"/>
      <point x="226" y="498"/>
      <point x="309" y="510"/>
      <point x="350" y="510" type="curve" smooth="yes"/>
      <point x="458" y="510"/>
      <point x="561" y="436"/>
      <point x="561" y="250" type="curve" smooth="yes"/>
      <point x="561" y="63"/>
      <point x="452" y="-19"/>
      <point x="332" y="-19" type="curve" smooth="yes"/>
      <point x="259" y="-19"/>
      <point x="205" y="12"/>
      <point x="178" y="56" type="curve"/>
      <point x="178" y="-193" type="line"/>
    </contour>
    <contour>
      <point x="175" y="236" type="curve" smooth="yes"/>
      <point x="175" y="175"/>
      <point x="184" y="50"/>
      <point x="316" y="50" type="curve" smooth="yes"/>
      <point x="340" y="50"/>
      <point x="390" y="55"/>
      <point x="422" y="99" type="curve" smooth="yes"/>
      <point x="458" y="148"/>
      <point x="463" y="220"/>
      <point x="463" y="256" type="curve" smooth="yes"/>
      <point x="463" y="346"/>
      <point x="436" y="440"/>
      <point x="325" y="440" type="curve" smooth="yes"/>
      <point x="175" y="440"/>
      <point x="175" y="281"/>
    </contour>
  </outline>
</glyph>
<glyph name="q" format="1">
  <advance width="611"/>
  <unicode hex="0071"/>
  <outline>
    <contour>
      <point x="434" y="502" type="line"/>
      <point x="529" y="502" type="line"/>
      <point x="528" y="482"/>
      <point x="527" y="438"/>
      <point x="527" y="420" type="curve" smooth="yes"/>
      <point x="527" y="-193" type="line"/>
      <point x="432" y="-193" type="line"/>
      <point x="432" y="56" type="line"/>
      <point x="424" y="44"/>
      <point x="414" y="28"/>
      <point x="391" y="13" type="curve" smooth="yes"/>
      <point x="349" y="-16"/>
      <point x="301" y="-19"/>
      <point x="278" y="-19" type="curve" smooth="yes"/>
      <point x="156" y="-19"/>
      <point x="49" y="67"/>
      <point x="49" y="253" type="curve" smooth="yes"/>
      <point x="49" y="438"/>
      <point x="154" y="510"/>
      <point x="260" y="510" type="curve" smooth="yes"/>
      <point x="362" y="510"/>
      <point x="409" y="454"/>
      <point x="431" y="419" type="curve"/>
    </contour>
    <contour>
      <point x="435" y="241" type="curve" smooth="yes"/>
      <point x="435" y="282"/>
      <point x="435" y="440"/>
      <point x="284" y="440" type="curve" smooth="yes"/>
      <point x="149" y="440"/>
      <point x="147" y="298"/>
      <point x="147" y="259" type="curve" smooth="yes"/>
      <point x="147" y="223"/>
      <point x="152" y="150"/>
      <point x="188" y="99" type="curve" smooth="yes"/>
      <point x="210" y="67"/>
      <point x="249" y="50"/>
      <point x="296" y="50" type="curve" smooth="yes"/>
      <point x="412" y="50"/>
      <point x="435" y="141"/>
    </contour>
  </outline>
</glyph>
<glyph name="v" format="1">
  <advance width="556"/>
  <unicode hex="0076"/>
  <outline>
    <contour>
      <point x="222" y="0" type="line"/>
      <point x="12" y="502" type="line"/>
      <point x="117" y="502" type="line"/>
      <point x="277" y="104" type="line"/>
      <point x="433" y="502" type="line"/>
      <point x="537" y="502" type="line"/>
      <point x="317" y="0" type="line"/>
    </contour>
  </outline>
</glyph>
<glyph name="braceleft" format="1">
  <advance width="334"/>
  <unicode hex="007B"/>
  <outline>
    <contour>
      <point x="-1" y="287" type="curve"/>
      <point x="-1" y="338" type="line"/>
      <point x="13" y="339"/>
      <point x="58" y="345"/>
      <point x="91" y="370" type="curve" smooth="yes"/>
      <point x="131" y="399"/>
      <point x="131" y="438"/>
      <point x="131" y="487" type="curve" smooth="yes"/>
      <point x="131" y="514" type="line" smooth="yes"/>
      <point x="131" y="621"/>
      <point x="131" y="739"/>
      <point x="335" y="750" type="curve"/>
      <point x="335" y="699" type="line"/>
      <point x="212" y="689"/>
      <point x="212" y="602"/>
      <point x="212" y="532" type="curve" smooth="yes"/>
      <point x="212" y="506" type="line" smooth="yes"/>
      <point x="212" y="432"/>
      <point x="212" y="330"/>
      <point x="79" y="313" type="curve"/>
      <point x="211" y="296"/>
      <point x="212" y="198"/>
      <point x="212" y="119" type="curve" smooth="yes"/>
      <point x="212" y="88" type="line" smooth="yes"/>
      <point x="212" y="21"/>
      <point x="213" y="-64"/>
      <point x="335" y="-74" type="curve"/>
      <point x="335" y="-125" type="line"/>
      <point x="141" y="-113"/>
      <point x="131" y="-12"/>
      <point x="131" y="104" type="curve" smooth="yes"/>
      <point x="131" y="138" type="line" smooth="yes"/>
      <point x="131" y="202"/>
      <point x="131" y="272"/>
    </contour>
  </outline>
</glyph>
<glyph name="braceright" format="1">
  <advance width="334"/>
  <unicode hex="007D"/>
  <outline>
    <contour>
      <point x="335" y="338" type="curve"/>
      <point x="335" y="287" type="line"/>
      <point x="321" y="286"/>
      <point x="276" y="280"/>
      <point x="243" y="255" type="curve" smooth="yes"/>
      <point x="203" y="226"/>
      <point x="203" y="187"/>
      <point x="203" y="138" type="curve" smooth="yes"/>
      <point x="203" y="111" type="line" smooth="yes"/>
      <point x="203" y="4"/>
      <point x="203" y="-114"/>
      <point x="-1" y="-125" type="curve"/>
      <point x="-1" y="-74" type="line"/>
      <point x="122" y="-64"/>
      <point x="122" y="23"/>
      <point x="122" y="93" type="curve" smooth="yes"/>
      <point x="122" y="119" type="line" smooth="yes"/>
      <point x="122" y="193"/>
      <point x="122" y="295"/>
      <point x="255" y="313" type="curve"/>
      <point x="123" y="329"/>
      <point x="122" y="427"/>
      <point x="122" y="506" type="curve" smooth="yes"/>
      <point x="122" y="537" type="line" smooth="yes"/>
      <point x="122" y="604"/>
      <point x="121" y="689"/>
      <point x="-1" y="699" type="curve"/>
      <point x="-1" y="750" type="line"/>
      <point x="193" y="738"/>
      <point x="203" y="637"/>
      <point x="203" y="521" type="curve" smooth="yes"/>
      <point x="203" y="487" type="line" smooth="yes"/>
      <point x="203" y="423"/>
      <point x="203" y="353"/>
    </contour>
  </outline>
</glyph>
<glyph name="asciitilde" format="1">
  <advance width="584"/>
  <unicode hex="007E"/>
  <outline>
    <contour>
      <point x="82" y="174" type="curve"/>
      <point x="27" y="174" type="line"/>
      <point x="33" y="216"/>
      <point x="40" y="248"/>
      <point x="67" y="281" type="curve" smooth="yes"/>
      <point x="95" y="314"/>
      <point x="126" y="325"/>
      <point x="159" y="325" type="curve" smooth="yes"/>
      <point x="193" y="325"/>
      <point x="205" y="321"/>
      <point x="304" y="289" type="curve" smooth="yes"/>
      <point x="393" y="259"/>
      <point x="406" y="255"/>
      <point x="430" y="255" type="curve" smooth="yes"/>
      <point x="460" y="255"/>
      <point x="492" y="271"/>
      <point x="503" y="328" type="curve"/>
      <point x="557" y="328" type="line"/>
      <point x="543" y="197"/>
      <point x="464" y="178"/>
      <point x="424" y="178" type="curve" smooth="yes"/>
      <point x="384" y="178"/>
      <point x="309" y="203"/>
      <point x="263" y="219" type="curve" smooth="yes"/>
      <point x="184" y="246"/>
      <point x="175" y="249"/>
      <point x="155" y="249" type="curve" smooth="yes"/>
      <point x="128" y="249"/>
      <point x="91" y="229"/>
    </contour>
  </outline>
</glyph>
<glyph name="exclamdown" format="1">
  <advance width="389"/>
  <unicode hex="00A1"/>
  <outline>
    <contour>
      <point x="134" y="402" type="line"/>
      <point x="134" y="502" type="line"/>
      <point x="240" y="502" type="line"/>
      <point x="240" y="402" type="line"/>
    </contour>
    <contour>
      <point x="148" y="337" type="line"/>
      <point x="221" y="337" type="line"/>
      <point x="238" y="-220" type="line"/>
      <point x="127" y="-220" type="line"/>
    </contour>
  </outline>
</glyph>
<glyph name="yen" format="1">
  <advance width="556"/>
  <unicode hex="00A5"/>
  <outline>
    <contour>
      <point x="44" y="164" type="line"/>
      <point x="44" y="225" type="line"/>
      <point x="227" y="225" type="line"/>
      <point x="227" y="280" type="line"/>
      <point x="44" y="280" type="line"/>
      <point x="44" y="342" type="line"/>
      <point x="198" y="342" type="line"/>
      <point x="0" y="722" type="line"/>
      <point x="124" y="722" type="line"/>
      <point x="282" y="368" type="line"/>
      <point x="443" y="722" type="line"/>
      <point x="556" y="722" type="line"/>
      <point x="360" y="342" type="line"/>
      <point x="511" y="342" type="line"/>
      <point x="511" y="280" type="line"/>
      <point x="328" y="280" type="line"/>
      <point x="328" y="225" type="line"/>
      <point x="511" y="225" type="line"/>
      <point x="511" y="164" type="line"/>
      <point x="328" y="164" type="line"/>
      <point x="328" y="0" type="line"/>
      <point x="227" y="0" type="line"/>
      <point x="227" y="164" type="line"/>
    </contour>
  </outline>
</glyph>
<glyph name="section" format="1">
  <advance width="556"/>
  <unicode hex="00A7"/>
  <outline>
    <contour>
      <point x="111" y="0" type="curve"/>
      <point x="111" y="86" type="line"/>
      <point x="129" y="77"/>
      <point x="176" y="54"/>
      <point x="244" y="54" type="curve" smooth="yes"/>
      <point x="337" y="54"/>
      <point x="344" y="117"/>
      <point x="344" y="130" type="curve" smooth="yes"/>
      <point x="344" y="175"/>
      <point x="303" y="192"/>
      <point x="265" y="204" type="curve" smooth="yes"/>
      <point x="197" y="225" type="line" smooth="yes"/>
      <point x="164" y="236"/>
      <point x="95" y="257"/>
      <point x="95" y="341" type="curve" smooth="yes"/>
      <point x="95" y="429"/>
      <point x="174" y="460"/>
      <point x="204" y="471" type="curve"/>
      <point x="153" y="486"/>
      <point x="110" y="522"/>
      <point x="110" y="586" type="curve" smooth="yes"/>
      <point x="110" y="676"/>
      <point x="182" y="725"/>
      <point x="290" y="725" type="curve" smooth="yes"/>
      <point x="318" y="725"/>
      <point x="361" y="722"/>
      <point x="409" y="708" type="curve"/>
      <point x="409" y="630" type="line"/>
      <point x="373" y="644"/>
      <point x="339" y="658"/>
      <point x="298" y="658" type="curve" smooth="yes"/>
      <point x="268" y="658"/>
      <point x="207" y="651"/>
      <point x="207" y="592" type="curve" smooth="yes"/>
      <point x="207" y="548"/>
      <point x="236" y="538"/>
      <point x="269" y="527" type="curve" smooth="yes"/>
      <point x="332" y="506" type="line" smooth="yes"/>
      <point x="366" y="495"/>
      <point x="434" y="472"/>
      <point x="434" y="387" type="curve" smooth="yes"/>
      <point x="434" y="318"/>
      <point x="396" y="278"/>
      <point x="332" y="259" type="curve"/>
      <point x="367" y="248"/>
      <point x="443" y="224"/>
      <point x="443" y="131" type="curve" smooth="yes"/>
      <point x="443" y="45"/>
      <point x="370" y="-21"/>
      <point x="236" y="-21" type="curve" smooth="yes"/>
      <point x="192" y="-21"/>
      <point x="153" y="-14"/>
    </contour>
    <contour>
      <point x="266" y="282" type="curve"/>
      <point x="291" y="291"/>
      <point x="351" y="313"/>
      <point x="351" y="370" type="curve" smooth="yes"/>
      <point x="351" y="420"/>
      <point x="306" y="434"/>
      <point x="263" y="448" type="curve"/>
      <point x="232" y="435"/>
      <point x="182" y="415"/>
      <point x="182" y="360" type="curve" smooth="yes"/>
      <point x="182" y="306"/>
      <point x="237" y="290"/>
    </contour>
  </outline>
</glyph>
<glyph name="ordfeminine" format="1">
  <advance width="334"/>
  <unicode hex="00AA"/>
  <outline>
    <contour>
      <point x="299" y="431" type="curve"/>
      <point x="244" y="431" type="line"/>
      <point x="242" y="438"/>
      <point x="238" y="454"/>
      <point x="238" y="476" type="curve"/>
      <point x="228" y="459"/>
      <point x="205" y="421"/>
      <point x="136" y="421" type="curve" smooth="yes"/>
      <point x="76" y="421"/>
      <point x="23" y="451"/>
      <point x="23" y="511" type="curve" smooth="yes"/>
      <point x="23" y="596"/>
      <point x="113" y="618"/>
      <point x="189" y="618" type="curve" smooth="yes"/>
      <point x="197" y="618"/>
      <point x="229" y="617"/>
      <point x="237" y="616" type="curve"/>
      <point x="237" y="668"/>
      <point x="236" y="702"/>
      <point x="170" y="702" type="curve" smooth="yes"/>
      <point x="106" y="702"/>
      <point x="104" y="664"/>
      <point x="103" y="652" type="curve"/>
      <point x="42" y="652" type="line"/>
      <point x="43" y="667"/>
      <point x="46" y="703"/>
      <point x="85" y="723" type="curve" smooth="yes"/>
      <point x="99" y="731"/>
      <point x="125" y="741"/>
      <point x="170" y="741" type="curve" smooth="yes"/>
      <point x="222" y="741"/>
      <point x="272" y="726"/>
      <point x="288" y="693" type="curve" smooth="yes"/>
      <point x="296" y="675"/>
      <point x="297" y="662"/>
      <point x="296" y="650" type="curve" smooth="yes"/>
      <point x="294" y="507" type="line" smooth="yes"/>
      <point x="294" y="503"/>
      <point x="294" y="471"/>
    </contour>
    <contour>
      <point x="237" y="577" type="curve"/>
      <point x="210" y="580"/>
      <point x="84" y="589"/>
      <point x="84" y="518" type="curve" smooth="yes"/>
      <point x="84" y="499"/>
      <point x="97" y="466"/>
      <point x="152" y="466" type="curve" smooth="yes"/>
      <point x="205" y="466"/>
      <point x="224" y="501"/>
      <point x="227" y="507" type="curve" smooth="yes"/>
      <point x="235" y="525"/>
      <point x="236" y="547"/>
    </contour>
  </outline>
</glyph>
<glyph name="guillemotleft" format="1">
  <advance width="556"/>
  <unicode hex="00AB"/>
  <outline>
    <contour>
      <point x="274" y="53" type="line"/>
      <point x="194" y="53" type="line"/>
      <point x="83" y="249" type="line"/>
      <point x="194" y="443" type="line"/>
      <point x="273" y="443" type="line"/>
      <point x="176" y="249" type="line"/>
    </contour>
    <contour>
      <point x="470" y="53" type="line"/>
      <point x="390" y="53" type="line"/>
      <point x="279" y="249" type="line"/>
      <point x="390" y="443" type="line"/>
      <point x="469" y="443" type="line"/>
      <point x="372" y="249" type="line"/>
    </contour>
  </outline>
</glyph>
<glyph name="registered" format="1">
  <advance width="800"/>
  <unicode hex="00AE"/>
  <outline>
    <contour>
      <point x="273" y="163" type="line"/>
      <point x="273" y="569" type="line"/>
      <point x="417" y="569" type="line" smooth="yes"/>
      <point x="447" y="569"/>
      <point x="555" y="569"/>
      <point x="555" y="467" type="curve" smooth="yes"/>
      <point x="555" y="455"/>
      <point x="555" y="391"/>
      <point x="479" y="369" type="curve"/>
      <point x="521" y="359"/>
      <point x="535" y="341"/>
      <point x="541" y="291" type="curve" smooth="yes"/>
      <point x="547" y="241"/>
      <point x="551" y="203"/>
      <point x="565" y="163" type="curve"/>
      <point x="507" y="163" type="line"/>
      <point x="499" y="189"/>
      <point x="495" y="205"/>
      <point x="487" y="269" type="curve" smooth="yes"/>
      <point x="481" y="331"/>
      <point x="465" y="347"/>
      <point x="399" y="347" type="curve" smooth="yes"/>
      <point x="329" y="347" type="line"/>
      <point x="329" y="163" type="line"/>
    </contour>
    <contour>
      <point x="329" y="521" type="line"/>
      <point x="329" y="395" type="line"/>
      <point x="417" y="395" type="line" smooth="yes"/>
      <point x="445" y="395"/>
      <point x="497" y="395"/>
      <point x="497" y="457" type="curve" smooth="yes"/>
      <point x="497" y="521"/>
      <point x="447" y="521"/>
      <point x="417" y="521" type="curve" smooth="yes"/>
    </contour>
    <contour>
      <point x="411" y="741" type="curve" smooth="yes"/>
      <point x="619" y="741"/>
      <point x="789" y="573"/>
      <point x="789" y="363" type="curve" smooth="yes"/>
      <point x="789" y="151"/>
      <point x="617" y="-17"/>
      <point x="411" y="-17" type="curve" smooth="yes"/>
      <point x="207" y="-17"/>
      <point x="33" y="151"/>
      <point x="33" y="363" type="curve" smooth="yes"/>
      <point x="33" y="575"/>
      <point x="209" y="741"/>
    </contour>
    <contour>
      <point x="411" y="696" type="curve" smooth="yes"/>
      <point x="229" y="696"/>
      <point x="78" y="546"/>
      <point x="78" y="363" type="curve" smooth="yes"/>
      <point x="78" y="175"/>
      <point x="229" y="27"/>
      <point x="411" y="27" type="curve" smooth="yes"/>
      <point x="595" y="27"/>
      <point x="744" y="177"/>
      <point x="744" y="363" type="curve" smooth="yes"/>
      <point x="744" y="542"/>
      <point x="599" y="696"/>
    </contour>
  </outline>
</glyph>
<glyph name="plusminus" format="1">
  <advance width="584"/>
  <unicode hex="00B1"/>
  <outline>
    <contour>
      <point x="250" y="104" type="line"/>
      <point x="250" y="270" type="line"/>
      <point x="37" y="270" type="line"/>
      <point x="37" y="347" type="line"/>
      <point x="250" y="347" type="line"/>
      <point x="250" y="515" type="line"/>
      <point x="334" y="515" type="line"/>
      <point x="334" y="347" type="line"/>
      <point x="547" y="347" type="line"/>
      <point x="547" y="270" type="line"/>
      <point x="334" y="270" type="line"/>
      <point x="334" y="104" type="line"/>
    </contour>
    <contour>
      <point x="37" y="-13" type="line"/>
      <point x="37" y="64" type="line"/>
      <point x="547" y="64" type="line"/>
      <point x="547" y="-13" type="line"/>
    </contour>
  </outline>
</glyph>
<glyph name="mu" format="1">
  <advance width="611"/>
  <unicode hex="00B5"/>
  <outline>
    <contour>
      <point x="89" y="-209" type="line"/>
      <point x="89" y="502" type="line"/>
      <point x="169" y="502" type="line"/>
      <point x="169" y="260" type="line" smooth="yes"/>
      <point x="169" y="215"/>
      <point x="170" y="152"/>
      <point x="192" y="114" type="curve" smooth="yes"/>
      <point x="220" y="66"/>
      <point x="267" y="58"/>
      <point x="293" y="58" type="curve" smooth="yes"/>
      <point x="329" y="58"/>
      <point x="374" y="73"/>
      <point x="402" y="121" type="curve" smooth="yes"/>
      <point x="422" y="155"/>
      <point x="427" y="204"/>
      <point x="427" y="262" type="curve" smooth="yes"/>
      <point x="427" y="502" type="line"/>
      <point x="508" y="502" type="line"/>
      <point x="508" y="0" type="line"/>
      <point x="434" y="0" type="line"/>
      <point x="434" y="70" type="line"/>
      <point x="416" y="44"/>
      <point x="378" y="-11"/>
      <point x="291" y="-11" type="curve" smooth="yes"/>
      <point x="215" y="-11"/>
      <point x="186" y="30"/>
      <point x="169" y="52" type="curve"/>
      <point x="169" y="-209" type="line"/>
    </contour>
  </outline>
</glyph>
<glyph name="periodcentered" format="1">
  <advance width="278"/>
  <unicode hex="00B7"/>
  <outline>
    <contour>
      <point x="81" y="231" type="line"/>
      <point x="81" y="352" type="line"/>
      <point x="192" y="352" type="line"/>
      <point x="192" y="231" type="line"/>
    </contour>
  </outline>
</glyph>
<glyph name="guillemotright" format="1">
  <advance width="556"/>
  <unicode hex="00BB"/>
  <outline>
    <contour>
      <point x="81" y="443" type="line"/>
      <point x="161" y="443" type="line"/>
      <point x="272" y="248" type="line"/>
      <point x="161" y="53" type="line"/>
      <point x="82" y="53" type="line"/>
      <point x="179" y="248" type="line"/>
    </contour>
    <contour>
      <point x="277" y="443" type="line"/>
      <point x="356" y="443" type="line"/>
      <point x="468" y="248" type="line"/>
      <point x="356" y="53" type="line"/>
      <point x="278" y="53" type="line"/>
      <point x="375" y="248" type="line"/>
    </contour>
  </outline>
</glyph>
<glyph name="onehalf" format="1">
  <advance width="834"/>
  <unicode hex="00BD"/>
  <outline>
    <contour>
      <point x="146" y="-28" type="line"/>
      <point x="576" y="715" type="line"/>
      <point x="640" y="715" type="line"/>
      <point x="211" y="-28" type="line"/>
    </contour>
    <contour>
      <point x="191" y="284" type="line"/>
      <point x="129" y="284" type="line"/>
      <point x="129" y="634" type="line"/>
      <point x="81" y="598"/>
      <point x="43" y="581"/>
      <point x="24" y="573" type="curve"/>
      <point x="24" y="634" type="line"/>
      <point x="59" y="650"/>
      <point x="91" y="666"/>
      <point x="134" y="699" type="curve"/>
      <point x="191" y="699" type="line"/>
    </contour>
    <contour>
      <point x="525" y="0" type="line"/>
      <point x="525" y="55" type="line"/>
      <point x="642" y="161" type="line" smooth="yes"/>
      <point x="729" y="240"/>
      <point x="745" y="272"/>
      <point x="745" y="307" type="curve" smooth="yes"/>
      <point x="745" y="350"/>
      <point x="715" y="374"/>
      <point x="672" y="374" type="curve" smooth="yes"/>
      <point x="601" y="374"/>
      <point x="600" y="316"/>
      <point x="599" y="302" type="curve"/>
      <point x="531" y="302" type="line"/>
      <point x="536" y="409"/>
      <point x="627" y="423"/>
      <point x="670" y="423" type="curve" smooth="yes"/>
      <point x="749" y="423"/>
      <point x="810" y="383"/>
      <point x="810" y="303" type="curve" smooth="yes"/>
      <point x="810" y="277"/>
      <point x="806" y="253"/>
      <point x="760" y="199" type="curve" smooth="yes"/>
      <point x="746" y="183"/>
      <point x="690" y="130"/>
      <point x="675" y="117" type="curve" smooth="yes"/>
      <point x="597" y="47" type="line"/>
      <point x="811" y="47" type="line"/>
      <point x="811" y="0" type="line"/>
    </contour>
  </outline>
</glyph>
<glyph name="Agrave" format="1">
  <advance width="722"/>
  <unicode hex="00C0"/>
  <outline>
    <contour>
      <point x="9" y="0" type="line"/>
      <point x="313" y="722" type="line"/>
      <point x="420" y="722" type="line"/>
      <point x="712" y="0" type="line"/>
      <point x="603" y="0" type="line"/>
      <point x="525" y="188" type="line"/>
      <point x="190" y="188" type="line"/>
      <point x="112" y="0" type="line"/>
    </contour>
    <contour>
      <point x="362" y="623" type="line"/>
      <point x="222" y="269" type="line"/>
      <point x="495" y="269" type="line"/>
    </contour>
    <contour>
      <point x="224" y="930" type="line"/>
      <point x="337" y="930" type="line"/>
      <point x="421" y="786" type="line"/>
      <point x="359" y="786" type="line"/>
    </contour>
  </outline>
</glyph>
<glyph name="Atilde" format="1">
  <advance width="722"/>
  <unicode hex="00C3"/>
  <outline>
    <contour>
      <point x="9" y="0" type="line"/>
      <point x="313" y="722" type="line"/>
      <point x="420" y="722" type="line"/>
      <point x="712" y="0" type="line"/>
      <point x="603" y="0" type="line"/>
      <point x="525" y="188" type="line"/>
      <point x="190" y="188" type="line"/>
      <point x="112" y="0" type="line"/>
    </contour>
    <contour>
      <point x="362" y="623" type="line"/>
      <point x="222" y="269" type="line"/>
      <point x="495" y="269" type="line"/>
    </contour>
    <contour>
      <point x="262" y="802" type="curve"/>
      <point x="220" y="802" type="line"/>
      <point x="221" y="830"/>
      <point x="230" y="855"/>
      <point x="244" y="872" type="curve" smooth="yes"/>
      <point x="259" y="890"/>
      <point x="280" y="900"/>
      <point x="305" y="900" type="curve" smooth="yes"/>
      <point x="320" y="900"/>
      <point x="327" y="898"/>
      <point x="382" y="883" type="curve" smooth="yes"/>
      <point x="397" y="879"/>
      <point x="407" y="876"/>
      <point x="419" y="876" type="curve" smooth="yes"/>
      <point x="443" y="876"/>
      <point x="456" y="891"/>
      <point x="456" y="913" type="curve"/>
      <point x="497" y="913" type="line"/>
      <point x="499" y="836"/>
      <point x="449" y="812"/>
      <point x="413" y="812" type="curve" smooth="yes"/>
      <point x="395" y="812"/>
      <point x="379" y="816"/>
      <point x="350" y="825" type="curve" smooth="yes"/>
      <point x="330" y="830"/>
      <point x="306" y="838"/>
      <point x="300" y="838" type="curve" smooth="yes"/>
      <point x="285" y="838"/>
      <point x="271" y="831"/>
    </contour>
  </outline>
</glyph>
<glyph name="Adieresis" format="1">
  <advance width="722"/>
  <unicode hex="00C4"/>
  <outline>
    <contour>
      <point x="9" y="0" type="line"/>
      <point x="313" y="722" type="line"/>
      <point x="420" y="722" type="line"/>
      <point x="712" y="0" type="line"/>
      <point x="603" y="0" type="line"/>
      <point x="525" y="188" type="line"/>
      <point x="190" y="188" type="line"/>
      <point x="112" y="0" type="line"/>
    </contour>
    <contour>
      <point x="362" y="623" type="line"/>
      <point x="222" y="269" type="line"/>
      <point x="495" y="269" type="line"/>
    </contour>
    <contour>
      <point x="219" y="797" type="line"/>
      <point x="219" y="899" type="line"/>
      <point x="311" y="899" type="line"/>
      <point x="311" y="797" type="line"/>
    </contour>
    <contour>
      <point x="408" y="797" type="line"/>
      <point x="408" y="899" type="line"/>
      <point x="501" y="899" type="line"/>
      <point x="501" y="797" type="line"/>
    </contour>
  </outline>
</glyph>
<glyph name="Aring" format="1">
  <advance width="722"/>
  <unicode hex="00C5"/>
  <outline>
    <contour>
      <point x="9" y="0" type="line"/>
      <point x="313" y="722" type="line"/>
      <point x="420" y="722" type="line"/>
      <point x="712" y="0" type="line"/>
      <point x="603" y="0" type="line"/>
      <point x="525" y="188" type="line"/>
      <point x="190" y="188" type="line"/>
      <point x="112" y="0" type="line"/>
    </contour>
    <contour>
      <point x="362" y="623" type="line"/>
      <point x="222" y="269" type="line"/>
      <point x="495" y="269" type="line"/>
    </contour>
    <contour>
      <point x="263" y="849" type="curve" smooth="yes"/>
      <point x="263" y="903"/>
      <point x="307" y="947"/>
      <point x="361" y="947" type="curve" smooth="yes"/>
      <point x="415" y="947"/>
      <point x="459" y="903"/>
      <point x="459" y="849" type="curve" smooth="yes"/>
      <point x="459" y="795"/>
      <point x="415" y="751"/>
      <point x="361" y="751" type="curve" smooth="yes"/>
      <point x="307" y="751"/>
      <point x="263" y="795"/>
    </contour>
    <contour>
      <point x="303" y="849" type="curve" smooth="yes"/>
      <point x="303" y="817"/>
      <point x="329" y="791"/>
      <point x="361" y="791" type="curve" smooth="yes"/>
      <point x="393" y="791"/>
      <point x="419" y="817"/>
      <point x="419" y="849" type="curve" smooth="yes"/>
      <point x="419" y="881"/>
      <point x="393" y="907"/>
      <point x="361" y="907" type="curve" smooth="yes"/>
      <point x="329" y="907"/>
      <point x="303" y="881"/>
    </contour>
  </outline>
</glyph>
<glyph name="AE" format="1">
  <advance width="1000"/>
  <unicode hex="00C6"/>
  <outline>
    <contour>
      <point x="547" y="201" type="line"/>
      <point x="227" y="201" type="line"/>
      <point x="112" y="0" type="line"/>
      <point x="2" y="0" type="line"/>
      <point x="423" y="722" type="line"/>
      <point x="943" y="722" type="line"/>
      <point x="943" y="637" type="line"/>
      <point x="572" y="637" type="line"/>
      <point x="610" y="414" type="line"/>
      <point x="929" y="414" type="line"/>
      <point x="929" y="329" type="line"/>
      <point x="625" y="329" type="line"/>
      <point x="667" y="86" type="line"/>
      <point x="954" y="86" type="line"/>
      <point x="954" y="0" type="line"/>
      <point x="581" y="0" type="line"/>
    </contour>
    <contour>
      <point x="273" y="282" type="line"/>
      <point x="532" y="282" type="line"/>
      <point x="475" y="648" type="line"/>
    </contour>
  </outline>
</glyph>
<glyph name="Igrave" format="1">
  <advance width="278"/>
  <unicode hex="00CC"/>
  <outline>
    <contour>
      <point x="88" y="0" type="line"/>
      <point x="88" y="722" type="line"/>
      <point x="188" y="722" type="line"/>
      <point x="188" y="0" type="line"/>
    </contour>
    <contour>
      <point x="2" y="930" type="line"/>
      <point x="115" y="930" type="line"/>
      <point x="199" y="786" type="line"/>
      <point x="137" y="786" type="line"/>
    </contour>
  </outline>
</glyph>
<glyph name="Ograve" format="1">
  <advance width="778"/>
  <unicode hex="00D2"/>
  <outline>
    <contour>
      <point x="59" y="356" type="curve" smooth="yes"/>
      <point x="59" y="438"/>
      <point x="73" y="559"/>
      <point x="152" y="644" type="curve" smooth="yes"/>
      <point x="227" y="725"/>
      <point x="326" y="741"/>
      <point x="393" y="741" type="curve" smooth="yes"/>
      <point x="593" y="741"/>
      <point x="719" y="613"/>
      <point x="719" y="368" type="curve" smooth="yes"/>
      <point x="719" y="176"/>
      <point x="642" y="-17"/>
      <point x="385" y="-17" type="curve" smooth="yes"/>
      <point x="139" y="-17"/>
      <point x="59" y="158"/>
    </contour>
    <contour>
      <point x="164" y="362" type="curve" smooth="yes"/>
      <point x="164" y="283"/>
      <point x="178" y="196"/>
      <point x="228" y="134" type="curve" smooth="yes"/>
      <point x="269" y="83"/>
      <point x="331" y="68"/>
      <point x="388" y="68" type="curve" smooth="yes"/>
      <point x="447" y="68"/>
      <point x="506" y="84"/>
      <point x="548" y="134" type="curve" smooth="yes"/>
      <point x="607" y="206"/>
      <point x="613" y="320"/>
      <point x="613" y="369" type="curve" smooth="yes"/>
      <point x="613" y="533"/>
      <point x="559" y="657"/>
      <point x="394" y="657" type="curve" smooth="yes"/>
      <point x="211" y="657"/>
      <point x="164" y="510"/>
    </contour>
    <contour>
      <point x="252" y="930" type="line"/>
      <point x="365" y="930" type="line"/>
      <point x="449" y="786" type="line"/>
      <point x="387" y="786" type="line"/>
    </contour>
  </outline>
</glyph>
<glyph name="multiply" format="1">
  <advance width="584"/>
  <unicode hex="00D7"/>
  <outline>
    <contour>
      <point x="47" y="65" type="line"/>
      <point x="233" y="251" type="line"/>
      <point x="47" y="437" type="line"/>
      <point x="104" y="494" type="line"/>
      <point x="290" y="309" type="line"/>
      <point x="476" y="494" type="line"/>
      <point x="534" y="437" type="line"/>
      <point x="348" y="251" type="line"/>
      <point x="533" y="65" type="line"/>
      <point x="476" y="8" type="line"/>
      <point x="290" y="194" type="line"/>
      <point x="104" y="8" type="line"/>
    </contour>
  </outline>
</glyph>
<glyph name="Yacute" format="1">
  <advance width="667"/>
  <unicode hex="00DD"/>
  <outline>
    <contour>
      <point x="289" y="0" type="line"/>
      <point x="289" y="284" type="line"/>
      <point x="7" y="722" type="line"/>
      <point x="131" y="722" type="line"/>
      <point x="344" y="368" type="line"/>
      <point x="560" y="722" type="line"/>
      <point x="672" y="722" type="line"/>
      <point x="390" y="279" type="line"/>
      <point x="390" y="0" type="line"/>
    </contour>
    <contour>
      <point x="357" y="930" type="line"/>
      <point x="461" y="930" type="line"/>
      <point x="340" y="786" type="line"/>
      <point x="275" y="786" type="line"/>
    </contour>
  </outline>
</glyph>
<glyph name="Thorn" format="1">
  <advance width="611"/>
  <unicode hex="00DE"/>
  <outline>
    <contour>
      <point x="88" y="719" type="line"/>
      <point x="188" y="719" type="line"/>
      <point x="188" y="601" type="line"/>
      <point x="330" y="601" type="line" smooth="yes"/>
      <point x="437" y="601"/>
      <point x="485" y="588"/>
      <point x="527" y="543" type="curve" smooth="yes"/>
      <point x="563" y="506"/>
      <point x="580" y="457"/>
      <point x="580" y="403" type="curve" smooth="yes"/>
      <point x="580" y="348"/>
      <point x="562" y="301"/>
      <point x="523" y="262" type="curve" smooth="yes"/>
      <point x="486" y="225"/>
      <point x="437" y="200"/>
      <point x="305" y="200" type="curve" smooth="yes"/>
      <point x="188" y="200" type="line"/>
      <point x="188" y="0" type="line"/>
      <point x="88" y="0" type="line"/>
    </contour>
    <contour>
      <point x="188" y="520" type="line"/>
      <point x="188" y="284" type="line"/>
      <point x="307" y="284" type="line" smooth="yes"/>
      <point x="373" y="284"/>
      <point x="474" y="289"/>
      <point x="474" y="407" type="curve" smooth="yes"/>
      <point x="474" y="520"/>
      <point x="380" y="520"/>
      <point x="328" y="520" type="curve" smooth="yes"/>
    </contour>
  </outline>
</glyph>
<glyph name="aring" format="1">
  <advance width="556"/>
  <unicode hex="00E5"/>
  <outline>
    <contour>
      <point x="479" y="0" type="curve"/>
      <point x="394" y="0" type="line"/>
      <point x="387" y="25"/>
      <point x="385" y="49"/>
      <point x="385" y="75" type="curve"/>
      <point x="340" y="-8"/>
      <point x="272" y="-16"/>
      <point x="230" y="-16" type="curve" smooth="yes"/>
      <point x="115" y="-16"/>
      <point x="53" y="49"/>
      <point x="53" y="132" type="curve" smooth="yes"/>
      <point x="53" y="172"/>
      <point x="67" y="236"/>
      <point x="141" y="279" type="curve" smooth="yes"/>
      <point x="195" y="309"/>
      <point x="275" y="312"/>
      <point x="315" y="312" type="curve" smooth="yes"/>
      <point x="339" y="312"/>
      <point x="354" y="311"/>
      <point x="383" y="309" type="curve"/>
      <point x="383" y="371"/>
      <point x="383" y="398"/>
      <point x="365" y="420" type="curve" smooth="yes"/>
      <point x="346" y="445"/>
      <point x="305" y="453"/>
      <point x="278" y="453" type="curve" smooth="yes"/>
      <point x="183" y="453"/>
      <point x="178" y="388"/>
      <point x="177" y="368" type="curve"/>
      <point x="83" y="368" type="line"/>
      <point x="86" y="394"/>
      <point x="89" y="429"/>
      <point x="118" y="463" type="curve" smooth="yes"/>
      <point x="156" y="505"/>
      <point x="227" y="517"/>
      <point x="280" y="517" type="curve" smooth="yes"/>
      <point x="353" y="517"/>
      <point x="431" y="494"/>
      <point x="458" y="443" type="curve" smooth="yes"/>
      <point x="474" y="413"/>
      <point x="475" y="389"/>
      <point x="475" y="366" type="curve" smooth="yes"/>
      <point x="471" y="126" type="line" smooth="yes"/>
      <point x="471" y="118"/>
      <point x="472" y="51"/>
    </contour>
    <contour>
      <point x="383" y="244" type="curve"/>
      <point x="366" y="246"/>
      <point x="352" y="247"/>
      <point x="329" y="247" type="curve" smooth="yes"/>
      <point x="291" y="247"/>
      <point x="148" y="247"/>
      <point x="148" y="145" type="curve" smooth="yes"/>
      <point x="148" y="113"/>
      <point x="168" y="58"/>
      <point x="252" y="58" type="curve" smooth="yes"/>
      <point x="300" y="58"/>
      <point x="336" y="77"/>
      <point x="359" y="112" type="curve" smooth="yes"/>
      <point x="380" y="146"/>
      <point x="381" y="174"/>
    </contour>
    <contour>
      <point x="180" y="669" type="curve" smooth="yes"/>
      <point x="180" y="723"/>
      <point x="224" y="767"/>
      <point x="278" y="767" type="curve" smooth="yes"/>
      <point x="332" y="767"/>
      <point x="376" y="723"/>
      <point x="376" y="669" type="curve" smooth="yes"/>
      <point x="376" y="615"/>
      <point x="332" y="571"/>
      <point x="278" y="571" type="curve" smooth="yes"/>
      <point x="224" y="571"/>
      <point x="180" y="615"/>
    </contour>
    <contour>
      <point x="220" y="669" type="curve" smooth="yes"/>
      <point x="220" y="637"/>
      <point x="246" y="611"/>
      <point x="278" y="611" type="curve" smooth="yes"/>
      <point x="310" y="611"/>
      <point x="336" y="637"/>
      <point x="336" y="669" type="curve" smooth="yes"/>
      <point x="336" y="701"/>
      <point x="310" y="727"/>
      <point x="278" y="727" type="curve" smooth="yes"/>
      <point x="246" y="727"/>
      <point x="220" y="701"/>
    </contour>
  </outline>
</glyph>
<glyph name="eth" format="1">
  <advance width="611"/>
  <unicode hex="00F0"/>
  <outline>
    <contour>
      <point x="124" y="598" type="line"/>
      <point x="210" y="650" type="line"/>
      <point x="164" y="679"/>
      <point x="146" y="689"/>
      <point x="126" y="699" type="curve"/>
      <point x="188" y="758" type="line"/>
      <point x="223" y="740"/>
      <point x="238" y="730"/>
      <point x="289" y="697" type="curve"/>
      <point x="388" y="755" type="line"/>
      <point x="424" y="719" type="line"/>
      <point x="334" y="667" type="line"/>
      <point x="414" y="606"/>
      <point x="558" y="495"/>
      <point x="558" y="271" type="curve" smooth="yes"/>
      <point x="558" y="98"/>
      <point x="468" y="-17"/>
      <point x="302" y="-17" type="curve" smooth="yes"/>
      <point x="162" y="-17"/>
      <point x="54" y="68"/>
      <point x="54" y="244" type="curve" smooth="yes"/>
      <point x="54" y="436"/>
      <point x="182" y="506"/>
      <point x="288" y="506" type="curve" smooth="yes"/>
      <point x="380" y="506"/>
      <point x="418" y="460"/>
      <point x="439" y="435" type="curve"/>
      <point x="402" y="501"/>
      <point x="343" y="559"/>
      <point x="256" y="620" type="curve"/>
      <point x="160" y="563" type="line"/>
    </contour>
    <contour>
      <point x="307" y="54" type="curve" smooth="yes"/>
      <point x="369" y="54"/>
      <point x="458" y="96"/>
      <point x="458" y="251" type="curve" smooth="yes"/>
      <point x="458" y="374"/>
      <point x="401" y="443"/>
      <point x="310" y="443" type="curve" smooth="yes"/>
      <point x="221" y="443"/>
      <point x="155" y="379"/>
      <point x="155" y="249" type="curve" smooth="yes"/>
      <point x="155" y="144"/>
      <point x="204" y="54"/>
    </contour>
  </outline>
</glyph>
<glyph name="oacute" format="1">
  <advance width="611"/>
  <unicode hex="00F3"/>
  <outline>
    <contour>
      <point x="51" y="245" type="curve" smooth="yes"/>
      <point x="51" y="369"/>
      <point x="109" y="515"/>
      <point x="306" y="515" type="curve" smooth="yes"/>
      <point x="507" y="515"/>
      <point x="552" y="357"/>
      <point x="552" y="252" type="curve" smooth="yes"/>
      <point x="552" y="105"/>
      <point x="469" y="-17"/>
      <point x="298" y="-17" type="curve" smooth="yes"/>
      <point x="132" y="-17"/>
      <point x="51" y="98"/>
    </contour>
    <contour>
      <point x="149" y="251" type="curve" smooth="yes"/>
      <point x="149" y="148"/>
      <point x="193" y="53"/>
      <point x="300" y="53" type="curve" smooth="yes"/>
      <point x="371" y="53"/>
      <point x="452" y="104"/>
      <point x="452" y="255" type="curve" smooth="yes"/>
      <point x="452" y="380"/>
      <point x="394" y="446"/>
      <point x="306" y="446" type="curve" smooth="yes"/>
      <point x="246" y="446"/>
      <point x="149" y="408"/>
    </contour>
    <contour>
      <point x="329" y="740" type="line"/>
      <point x="433" y="740" type="line"/>
      <point x="312" y="596" type="line"/>
      <point x="247" y="596" type="line"/>
    </contour>
  </outline>
</glyph>
<glyph name="divide" format="1">
  <advance width="584"/>
  <unicode hex="00F7"/>
  <outline>
    <contour>
      <point x="37" y="212" type="line"/>
      <point x="37" y="290" type="line"/>
      <point x="547" y="290" type="line"/>
      <point x="547" y="212" type="line"/>
    </contour>
    <contour>
      <point x="242" y="10" type="line"/>
      <point x="242" y="129" type="line"/>
      <point x="342" y="129" type="line"/>
      <point x="342" y="10" type="line"/>
    </contour>
    <contour>
      <point x="242" y="373" type="line"/>
      <point x="242" y="492" type="line"/>
      <point x="342" y="492" type="line"/>
      <point x="342" y="373" type="line"/>
    </contour>
  </outline>
</glyph>
<glyph name="yacute" format="1">
  <advance width="556"/>
  <unicode hex="00FD"/>
  <outline>
    <contour>
      <point x="537" y="502" type="line"/>
      <point x="314" y="-3" type="line"/>
      <point x="242" y="-190" type="line"/>
      <point x="145" y="-190" type="line"/>
      <point x="221" y="2" type="line"/>
      <point x="12" y="502" type="line"/>
      <point x="118" y="502" type="line"/>
      <point x="275" y="106" type="line"/>
      <point x="435" y="502" type="line"/>
    </contour>
    <contour>
      <point x="301" y="740" type="line"/>
      <point x="405" y="740" type="line"/>
      <point x="284" y="596" type="line"/>
      <point x="219" y="596" type="line"/>
    </contour>
  </outline>
</glyph>
<glyph name="lslash" format="1">
  <advance width="278"/>
  <unicode hex="0142"/>
  <outline>
    <contour>
      <point x="90" y="0" type="line"/>
      <point x="90" y="299" type="line"/>
      <point x="24" y="258" type="line"/>
      <point x="24" y="330" type="line"/>
      <point x="90" y="371" type="line"/>
      <point x="90" y="721" type="line"/>
      <point x="184" y="721" type="line"/>
      <point x="184" y="429" type="line"/>
      <point x="250" y="470" type="line"/>
      <point x="250" y="398" type="line"/>
      <point x="184" y="357" type="line"/>
      <point x="184" y="0" type="line"/>
    </contour>
  </outline>
</glyph>
<glyph name="OE" format="1">
  <advance width="1000"/>
  <unicode hex="0152"/>
  <outline>
    <contour>
      <point x="947" y="86" type="line"/>
      <point x="947" y="0" type="line"/>
      <point x="368" y="0" type="line" smooth="yes"/>
      <point x="197" y="0"/>
      <point x="44" y="117"/>
      <point x="44" y="364" type="curve" smooth="yes"/>
      <point x="44" y="482"/>
      <point x="78" y="604"/>
      <point x="195" y="678" type="curve" smooth="yes"/>
      <point x="245" y="710"/>
      <point x="311" y="725"/>
      <point x="393" y="725" type="curve" smooth="yes"/>
      <point x="400" y="725"/>
      <point x="420" y="724"/>
      <point x="439" y="724" type="curve" smooth="yes"/>
      <point x="458" y="723"/>
      <point x="478" y="722"/>
      <point x="484" y="722" type="curve" smooth="yes"/>
      <point x="944" y="722" type="line"/>
      <point x="944" y="639" type="line"/>
      <point x="604" y="639" type="line"/>
      <point x="604" y="412" type="line"/>
      <point x="928" y="412" type="line"/>
      <point x="928" y="329" type="line"/>
      <point x="604" y="329" type="line"/>
      <point x="604" y="86" type="line"/>
    </contour>
    <contour>
      <point x="503" y="85" type="curve"/>
      <point x="503" y="641" type="line"/>
      <point x="452" y="644"/>
      <point x="428" y="646"/>
      <point x="393" y="646" type="curve" smooth="yes"/>
      <point x="295" y="646"/>
      <point x="246" y="610"/>
      <point x="217" y="578" type="curve" smooth="yes"/>
      <point x="159" y="516"/>
      <point x="148" y="426"/>
      <point x="148" y="365" type="curve" smooth="yes"/>
      <point x="148" y="301"/>
      <point x="160" y="219"/>
      <point x="209" y="157" type="curve" smooth="yes"/>
      <point x="245" y="111"/>
      <point x="306" y="83"/>
      <point x="409" y="83" type="curve" smooth="yes"/>
      <point x="436" y="83"/>
      <point x="454" y="83"/>
    </contour>
  </outline>
</glyph>
<glyph name="oe" format="1">
  <advance width="944"/>
  <unicode hex="0153"/>
  <outline>
    <contour>
      <point x="795" y="155" type="curve"/>
      <point x="887" y="155" type="line"/>
      <point x="870" y="11"/>
      <point x="748" y="-16"/>
      <point x="686" y="-16" type="curve" smooth="yes"/>
      <point x="634" y="-16"/>
      <point x="585" y="1"/>
      <point x="548" y="31" type="curve" smooth="yes"/>
      <point x="516" y="58"/>
      <point x="504" y="85"/>
      <point x="495" y="104" type="curve"/>
      <point x="487" y="88"/>
      <point x="476" y="63"/>
      <point x="449" y="38" type="curve" smooth="yes"/>
      <point x="411" y="3"/>
      <point x="361" y="-15"/>
      <point x="299" y="-15" type="curve" smooth="yes"/>
      <point x="116" y="-15"/>
      <point x="52" y="131"/>
      <point x="52" y="246" type="curve" smooth="yes"/>
      <point x="52" y="386"/>
      <point x="141" y="511"/>
      <point x="304" y="511" type="curve" smooth="yes"/>
      <point x="437" y="511"/>
      <point x="479" y="424"/>
      <point x="496" y="388" type="curve"/>
      <point x="536" y="509"/>
      <point x="655" y="514"/>
      <point x="686" y="514" type="curve" smooth="yes"/>
      <point x="806" y="514"/>
      <point x="870" y="437"/>
      <point x="886" y="359" type="curve" smooth="yes"/>
      <point x="897" y="310"/>
      <point x="896" y="268"/>
      <point x="895" y="234" type="curve"/>
      <point x="545" y="234" type="line"/>
      <point x="545" y="211"/>
      <point x="546" y="155"/>
      <point x="568" y="118" type="curve" smooth="yes"/>
      <point x="592" y="76"/>
      <point x="639" y="54"/>
      <point x="682" y="54" type="curve" smooth="yes"/>
      <point x="744" y="54"/>
      <point x="789" y="96"/>
    </contour>
    <contour>
      <point x="548" y="303" type="curve"/>
      <point x="797" y="303" type="line"/>
      <point x="797" y="319"/>
      <point x="798" y="358"/>
      <point x="781" y="391" type="curve" smooth="yes"/>
      <point x="765" y="423"/>
      <point x="735" y="447"/>
      <point x="682" y="447" type="curve" smooth="yes"/>
      <point x="630" y="447"/>
      <point x="594" y="423"/>
      <point x="573" y="393" type="curve" smooth="yes"/>
      <point x="552" y="362"/>
      <point x="549" y="325"/>
    </contour>
    <contour>
      <point x="154" y="254" type="curve" smooth="yes"/>
      <point x="154" y="232"/>
      <point x="157" y="154"/>
      <point x="196" y="102" type="curve" smooth="yes"/>
      <point x="213" y="80"/>
      <point x="245" y="53"/>
      <point x="305" y="53" type="curve" smooth="yes"/>
      <point x="419" y="53"/>
      <point x="453" y="164"/>
      <point x="453" y="249" type="curve" smooth="yes"/>
      <point x="453" y="344"/>
      <point x="415" y="442"/>
      <point x="306" y="442" type="curve" smooth="yes"/>
      <point x="187" y="442"/>
      <point x="154" y="336"/>
    </contour>
  </outline>
</glyph>
<glyph name="scaron" format="1">
  <advance width="500"/>
  <unicode hex="0161"/>
  <outline>
    <contour>
      <point x="43" y="149" type="curve"/>
      <point x="142" y="149" type="line"/>
      <point x="141" y="111"/>
      <point x="161" y="58"/>
      <point x="252" y="58" type="curve" smooth="yes"/>
      <point x="291" y="58"/>
      <point x="320" y="65"/>
      <point x="340" y="90" type="curve" smooth="yes"/>
      <point x="350" y="103"/>
      <point x="356" y="120"/>
      <point x="356" y="137" type="curve" smooth="yes"/>
      <point x="356" y="186"/>
      <point x="321" y="195"/>
      <point x="246" y="212" type="curve" smooth="yes"/>
      <point x="141" y="236"/>
      <point x="53" y="257"/>
      <point x="53" y="362" type="curve" smooth="yes"/>
      <point x="53" y="454"/>
      <point x="133" y="514"/>
      <point x="249" y="514" type="curve" smooth="yes"/>
      <point x="312" y="514"/>
      <point x="400" y="496"/>
      <point x="430" y="436" type="curve" smooth="yes"/>
      <point x="443" y="408"/>
      <point x="443" y="384"/>
      <point x="443" y="363" type="curve"/>
      <point x="347" y="363" type="line"/>
      <point x="350" y="439"/>
      <point x="284" y="445"/>
      <point x="250" y="445" type="curve" smooth="yes"/>
      <point x="236" y="445"/>
      <point x="148" y="445"/>
      <point x="148" y="373" type="curve" smooth="yes"/>
      <point x="148" y="327"/>
      <point x="193" y="316"/>
      <point x="219" y="309" type="curve" smooth="yes"/>
      <point x="358" y="276"/>
      <point x="388" y="268"/>
      <point x="418" y="240" type="curve" smooth="yes"/>
      <point x="446" y="214"/>
      <point x="456" y="179"/>
      <point x="456" y="147" type="curve" smooth="yes"/>
      <point x="456" y="91"/>
      <point x="425" y="43"/>
      <point x="388" y="20" type="curve" smooth="yes"/>
      <point x="344" y="-7"/>
      <point x="291" y="-14"/>
      <point x="239" y="-14" type="curve" smooth="yes"/>
      <point x="137" y="-14"/>
      <point x="42" y="28"/>
    </contour>
    <contour>
      <point x="201" y="596" type="line"/>
      <point x="97" y="739" type="line"/>
      <point x="183" y="739" type="line"/>
      <point x="250" y="643" type="line"/>
      <point x="319" y="739" type="line"/>
      <point x="398" y="739" type="line"/>
      <point x="294" y="596" type="line"/>
    </contour>
  </outline>
</glyph>
<glyph name="Zcaron" format="1">
  <advance width="611"/>
  <unicode hex="017D"/>
  <outline>
    <contour>
      <point x="35" y="0" type="line"/>
      <point x="35" y="100" type="line"/>
      <point x="452" y="634" type="line"/>
      <point x="46" y="634" type="line"/>
      <point x="46" y="722" type="line"/>
      <point x="571" y="722" type="line"/>
      <point x="571" y="623" type="line"/>
      <point x="150" y="88" type="line"/>
      <point x="578" y="88" type="line"/>
      <point x="578" y="0" type="line"/>
    </contour>
    <contour>
      <point x="257" y="786" type="line"/>
      <point x="153" y="929" type="line"/>
      <point x="239" y="929" type="line"/>
      <point x="306" y="833" type="line"/>
      <point x="375" y="929" type="line"/>
      <point x="454" y="929" type="line"/>
      <point x="350" y="786" type="line"/>
    </contour>
  </outline>
</glyph>
<glyph name="uni02C9" format="1">
  <advance width="278"/>
  <unicode hex="02C9"/>
  <outline>
    <contour>
      <point x="0" y="642" type="line"/>
      <point x="0" y="695" type="line"/>
      <point x="275" y="695" type="line"/>
      <point x="275" y="642" type="line"/>
    </contour>
  </outline>
</glyph>
<glyph name="dotaccent" format="1">
  <advance width="278"/>
  <unicode hex="02D9"/>
  <outline>
    <contour>
      <point x="93" y="617" type="line"/>
      <point x="93" y="719" type="line"/>
      <point x="185" y="719" type="line"/>
      <point x="185" y="617" type="line"/>
    </contour>
  </outline>
</glyph>
<glyph name="ogonek" format="1">
  <advance width="278"/>
  <unicode hex="02DB"/>
  <outline>
    <contour>
      <point x="233" y="-132" type="curve"/>
      <point x="233" y="-173" type="line"/>
      <point x="209" y="-185"/>
      <point x="184" y="-198"/>
      <point x="139" y="-198" type="curve" smooth="yes"/>
      <point x="68" y="-198"/>
      <point x="45" y="-155"/>
      <point x="45" y="-124" type="curve" smooth="yes"/>
      <point x="45" y="-68"/>
      <point x="100" y="-28"/>
      <point x="166" y="1" type="curve"/>
      <point x="206" y="1" type="line"/>
      <point x="166" y="-26"/>
      <point x="124" y="-52"/>
      <point x="124" y="-94" type="curve" smooth="yes"/>
      <point x="124" y="-144"/>
      <point x="180" y="-144"/>
      <point x="188" y="-144" type="curve" smooth="yes"/>
      <point x="211" y="-144"/>
      <point x="222" y="-139"/>
    </contour>
  </outline>
</glyph>
<glyph name="uni03A9" format="1">
  <advance width="717"/>
  <unicode hex="03A9"/>
  <outline>
    <contour>
      <point x="193" y="71" type="line"/>
      <point x="193" y="74" type="line"/>
      <point x="124" y="135"/>
      <point x="60" y="239"/>
      <point x="60" y="375" type="curve" smooth="yes"/>
      <point x="60" y="566"/>
      <point x="188" y="705"/>
      <point x="361" y="705" type="curve" smooth="yes"/>
      <point x="544" y="705"/>
      <point x="655" y="547"/>
      <point x="655" y="380" type="curve" smooth="yes"/>
      <point x="655" y="239"/>
      <point x="588" y="130"/>
      <point x="521" y="74" type="curve"/>
      <point x="521" y="71" type="line"/>
      <point x="669" y="71" type="line"/>
      <point x="669" y="0" type="line"/>
      <point x="423" y="0" type="line"/>
      <point x="423" y="52" type="line"/>
      <point x="497" y="100"/>
      <point x="568" y="205"/>
      <point x="568" y="364" type="curve" smooth="yes"/>
      <point x="567" y="492"/>
      <point x="497" y="633"/>
      <point x="360" y="633" type="curve" smooth="yes"/>
      <point x="231" y="633"/>
      <point x="148" y="513"/>
      <point x="148" y="360" type="curve" smooth="yes"/>
      <point x="148" y="213"/>
      <point x="219" y="98"/>
      <point x="292" y="52" type="curve"/>
      <point x="292" y="0" type="line"/>
      <point x="46" y="0" type="line"/>
      <point x="46" y="71" type="line"/>
    </contour>
  </outline>
</glyph>
<glyph name="endash" format="1">
  <advance width="500"/>
  <unicode hex="2013"/>
  <outline>
    <contour>
      <point x="0" y="231" type="line"/>
      <point x="0" y="303" type="line"/>
      <point x="500" y="303" type="line"/>
      <point x="500" y="231" type="line"/>
    </contour>
  </outline>
</glyph>
<glyph name="quoteleft" format="1">
  <advance width="278"/>
  <unicode hex="2018"/>
  <outline>
    <contour>
      <point x="161" y="476" type="line"/>
      <point x="46" y="476" type="line"/>
      <point x="161" y="722" type="line"/>
      <point x="228" y="722" type="line"/>
    </contour>
  </outline>
</glyph>
<glyph name="quoteright" format="1">
  <advance width="278"/>
  <unicode hex="2019"/>
  <outline>
    <contour>
      <point x="112" y="722" type="line"/>
      <point x="227" y="722" type="line"/>
      <point x="115" y="476" type="line"/>
      <point x="47" y="476" type="line"/>
    </contour>
  </outline>
</glyph>
<glyph name="quotedblleft" format="1">
  <advance width="556"/>
  <unicode hex="201C"/>
  <outline>
    <contour>
      <point x="202" y="476" type="line"/>
      <point x="87" y="476" type="line"/>
      <point x="202" y="722" type="line"/>
      <point x="269" y="722" type="line"/>
    </contour>
    <contour>
      <point x="389" y="476" type="line"/>
      <point x="274" y="476" type="line"/>
      <point x="389" y="722" type="line"/>
      <point x="456" y="722" type="line"/>
    </contour>
  </outline>
</glyph>
<glyph name="quotedblright" format="1">
  <advance width="556"/>
  <unicode hex="201D"/>
  <outline>
    <contour>
      <point x="164" y="722" type="line"/>
      <point x="279" y="722" type="line"/>
      <point x="164" y="476" type="line"/>
      <point x="97" y="476" type="line"/>
    </contour>
    <contour>
      <point x="352" y="722" type="line"/>
      <point x="466" y="722" type="line"/>
      <point x="352" y="476" type="line"/>
      <point x="285" y="476" type="line"/>
    </contour>
  </outline>
</glyph>
<glyph name="quotedblbase" format="1">
  <advance width="556"/>
  <unicode hex="201E"/>
  <outline>
    <contour>
      <point x="164" y="100" type="line"/>
      <point x="279" y="100" type="line"/>
      <point x="169" y="-135" type="line"/>
      <point x="102" y="-135" type="line"/>
    </contour>
    <contour>
      <point x="351" y="100" type="line"/>
      <point x="465" y="100" type="line"/>
      <point x="355" y="-135" type="line"/>
      <point x="288" y="-135" type="line"/>
    </contour>
  </outline>
</glyph>
<glyph name="dagger" format="1">
  <advance width="556"/>
  <unicode hex="2020"/>
  <outline>
    <contour>
      <point x="480" y="553" type="line"/>
      <point x="480" y="479" type="line"/>
      <point x="313" y="479" type="line"/>
      <point x="313" y="0" type="line"/>
      <point x="234" y="0" type="line"/>
      <point x="234" y="479" type="line"/>
      <point x="64" y="479" type="line"/>
      <point x="64" y="553" type="line"/>
      <point x="234" y="553" type="line"/>
      <point x="234" y="722" type="line"/>
      <point x="313" y="722" type="line"/>
      <point x="313" y="553" type="line"/>
    </contour>
  </outline>
</glyph>
<glyph name="daggerdbl" format="1">
  <advance width="556"/>
  <unicode hex="2021"/>
  <outline>
    <contour>
      <point x="235" y="556" type="line"/>
      <point x="235" y="722" type="line"/>
      <point x="315" y="722" type="line"/>
      <point x="315" y="556" type="line"/>
      <point x="485" y="556" type="line"/>
      <point x="485" y="481" type="line"/>
      <point x="315" y="481" type="line"/>
      <point x="315" y="243" type="line"/>
      <point x="485" y="243" type="line"/>
      <point x="485" y="169" type="line"/>
      <point x="315" y="169" type="line"/>
      <point x="315" y="0" type="line"/>
      <point x="235" y="0" type="line"/>
      <point x="235" y="169" type="line"/>
      <point x="65" y="169" type="line"/>
      <point x="65" y="243" type="line"/>
      <point x="235" y="243" type="line"/>
      <point x="235" y="481" type="line"/>
      <point x="65" y="481" type="line"/>
      <point x="65" y="556" type="line"/>
    </contour>
  </outline>
</glyph>
<glyph name="bullet" format="1">
  <advance width="350"/>
  <unicode hex="2022"/>
  <outline>
    <contour>
      <point x="178" y="542" type="curve" smooth="yes"/>
      <point x="277" y="542"/>
      <point x="358" y="461"/>
      <point x="358" y="361" type="curve" smooth="yes"/>
      <point x="358" y="262"/>
      <point x="278" y="181"/>
      <point x="178" y="181" type="curve" smooth="yes"/>
      <point x="78" y="181"/>
      <point x="-3" y="262"/>
      <point x="-3" y="361" type="curve" smooth="yes"/>
      <point x="-3" y="462"/>
      <point x="79" y="542"/>
    </contour>
  </outline>
</glyph>
<glyph name="guilsinglright" format="1">
  <advance width="278"/>
  <unicode hex="203A"/>
  <outline>
    <contour>
      <point x="29" y="443" type="line"/>
      <point x="109" y="443" type="line"/>
      <point x="220" y="248" type="line"/>
      <point x="109" y="53" type="line"/>
      <point x="30" y="53" type="line"/>
      <point x="127" y="248" type="line"/>
    </contour>
  </outline>
</glyph>
<glyph name="trademark" format="1">
  <advance width="1000"/>
  <unicode hex="2122"/>
  <outline>
    <contour>
      <point x="409" y="361" type="line"/>
      <point x="409" y="722" type="line"/>
      <point x="492" y="722" type="line"/>
      <point x="589" y="425" type="line"/>
      <point x="688" y="722" type="line"/>
      <point x="766" y="722" type="line"/>
      <point x="766" y="361" type="line"/>
      <point x="720" y="361" type="line"/>
      <point x="720" y="685" type="line"/>
      <point x="608" y="361" type="line"/>
      <point x="563" y="361" type="line"/>
      <point x="455" y="685" type="line"/>
      <point x="455" y="361" type="line"/>
    </contour>
    <contour>
      <point x="239" y="361" type="line"/>
      <point x="195" y="361" type="line"/>
      <point x="195" y="679" type="line"/>
      <point x="93" y="679" type="line"/>
      <point x="93" y="722" type="line"/>
      <point x="344" y="722" type="line"/>
      <point x="344" y="679" type="line"/>
      <point x="239" y="679" type="line"/>
    </contour>
  </outline>
</glyph>
<glyph name="uni2206" format="1">
  <advance width="649"/>
  <unicode hex="2206"/>
  <outline>
    <contour>
      <point x="30" y="0" type="line"/>
      <point x="30" y="56" type="line"/>
      <point x="276" y="712" type="line"/>
      <point x="377" y="712" type="line"/>
      <point x="618" y="57" type="line"/>
      <point x="618" y="0" type="line"/>
    </contour>
    <contour>
      <point x="118" y="70" type="line"/>
      <point x="525" y="70" type="line"/>
      <point x="388" y="431" type="line" smooth="yes"/>
      <point x="371" y="484"/>
      <point x="337" y="569"/>
      <point x="324" y="614" type="curve"/>
      <point x="321" y="614" type="line"/>
      <point x="312" y="578"/>
      <point x="280" y="500"/>
      <point x="263" y="446" type="curve" smooth="yes"/>
    </contour>
  </outline>
</glyph>
<glyph name="product" format="1">
  <advance width="703"/>
  <unicode hex="220F"/>
  <outline>
    <contour>
      <point x="676" y="615" type="line"/>
      <point x="569" y="615" type="line"/>
      <point x="569" y="-96" type="line"/>
      <point x="484" y="-96" type="line"/>
      <point x="484" y="615" type="line"/>
      <point x="218" y="615" type="line"/>
      <point x="218" y="-96" type="line"/>
      <point x="133" y="-96" type="line"/>
      <point x="133" y="615" type="line"/>
      <point x="25" y="615" type="line"/>
      <point x="25" y="694" type="line"/>
      <point x="676" y="694" type="line"/>
    </contour>
  </outline>
</glyph>
<glyph name="summation" format="1">
  <advance width="554"/>
  <unicode hex="2211"/>
  <outline>
    <contour>
      <point x="532" y="-96" type="line"/>
      <point x="23" y="-96" type="line"/>
      <point x="23" y="-39" type="line"/>
      <point x="285" y="298" type="line"/>
      <point x="34" y="633" type="line"/>
      <point x="34" y="694" type="line"/>
      <point x="516" y="694" type="line"/>
      <point x="516" y="620" type="line"/>
      <point x="152" y="620" type="line"/>
      <point x="152" y="616" type="line"/>
      <point x="383" y="311" type="line"/>
      <point x="132" y="-12" type="line"/>
      <point x="132" y="-15" type="line"/>
      <point x="532" y="-15" type="line"/>
    </contour>
  </outline>
</glyph>
<glyph name="radical" format="1">
  <advance width="575"/>
  <unicode hex="221A"/>
  <outline>
    <contour>
      <point x="577" y="826" type="line"/>
      <point x="355" y="-146" type="line"/>
      <point x="281" y="-146" type="line"/>
      <point x="124" y="309" type="line"/>
      <point x="50" y="280" type="line"/>
      <point x="33" y="331" type="line"/>
      <point x="177" y="388" type="line"/>
      <point x="299" y="29" type="line" smooth="yes"/>
      <point x="305" y="3"/>
      <point x="313" y="-25"/>
      <point x="317" y="-45" type="curve"/>
      <point x="318" y="-46" type="line"/>
      <point x="321" y="-26"/>
      <point x="327" y="3"/>
      <point x="332" y="30" type="curve" smooth="yes"/>
      <point x="514" y="826" type="line"/>
    </contour>
  </outline>
</glyph>
<glyph name="infinity" format="1">
  <advance width="774"/>
  <unicode hex="221E"/>
  <outline>
    <contour>
      <point x="724" y="288" type="curve" smooth="yes"/>
      <point x="724" y="287" type="line" smooth="yes"/>
      <point x="724" y="188"/>
      <point x="649" y="126"/>
      <point x="570" y="126" type="curve" smooth="yes"/>
      <point x="508" y="126"/>
      <point x="457" y="162"/>
      <point x="388" y="243" type="curve"/>
      <point x="336" y="182"/>
      <point x="282" y="126"/>
      <point x="200" y="126" type="curve" smooth="yes"/>
      <point x="120" y="126"/>
      <point x="50" y="193"/>
      <point x="50" y="283" type="curve" smooth="yes"/>
      <point x="50" y="376"/>
      <point x="117" y="444"/>
      <point x="208" y="444" type="curve" smooth="yes"/>
      <point x="283" y="444"/>
      <point x="339" y="390"/>
      <point x="392" y="327" type="curve"/>
      <point x="441" y="382"/>
      <point x="492" y="444"/>
      <point x="577" y="444" type="curve" smooth="yes"/>
      <point x="663" y="444"/>
      <point x="724" y="380"/>
    </contour>
    <contour>
      <point x="208" y="177" type="curve" smooth="yes"/>
      <point x="209" y="177" type="line" smooth="yes"/>
      <point x="271" y="177"/>
      <point x="319" y="237"/>
      <point x="359" y="281" type="curve"/>
      <point x="315" y="336"/>
      <point x="272" y="394"/>
      <point x="202" y="394" type="curve" smooth="yes"/>
      <point x="140" y="394"/>
      <point x="104" y="343"/>
      <point x="104" y="282" type="curve" smooth="yes"/>
      <point x="105" y="225"/>
      <point x="146" y="177"/>
    </contour>
    <contour>
      <point x="571" y="394" type="curve" smooth="yes"/>
      <point x="570" y="394" type="line" smooth="yes"/>
      <point x="504" y="394"/>
      <point x="453" y="322"/>
      <point x="419" y="287" type="curve"/>
      <point x="484" y="213"/>
      <point x="520" y="177"/>
      <point x="573" y="177" type="curve" smooth="yes"/>
      <point x="635" y="177"/>
      <point x="670" y="233"/>
      <point x="670" y="283" type="curve" smooth="yes"/>
      <point x="670" y="352"/>
      <point x="628" y="394"/>
    </contour>
  </outline>
</glyph>
<glyph name="approxequal" format="1">
  <advance width="559"/>
  <unicode hex="2248"/>
  <outline>
    <contour>
      <point x="480" y="433" type="curve"/>
      <point x="514" y="403" type="line"/>
      <point x="486" y="349"/>
      <point x="444" y="307"/>
      <point x="384" y="307" type="curve" smooth="yes"/>
      <point x="343" y="307"/>
      <point x="315" y="321"/>
      <point x="268" y="348" type="curve" smooth="yes"/>
      <point x="238" y="366"/>
      <point x="210" y="382"/>
      <point x="176" y="382" type="curve" smooth="yes"/>
      <point x="130" y="382"/>
      <point x="103" y="346"/>
      <point x="78" y="308" type="curve"/>
      <point x="44" y="338" type="line"/>
      <point x="74" y="396"/>
      <point x="124" y="434"/>
      <point x="183" y="434" type="curve" smooth="yes"/>
      <point x="231" y="434"/>
      <point x="266" y="409"/>
      <point x="293" y="394" type="curve" smooth="yes"/>
      <point x="329" y="375"/>
      <point x="351" y="359"/>
      <point x="386" y="359" type="curve" smooth="yes"/>
      <point x="426" y="359"/>
      <point x="452" y="386"/>
    </contour>
    <contour>
      <point x="480" y="259" type="curve"/>
      <point x="514" y="229" type="line"/>
      <point x="486" y="176"/>
      <point x="444" y="134"/>
      <point x="384" y="134" type="curve" smooth="yes"/>
      <point x="343" y="134"/>
      <point x="315" y="149"/>
      <point x="268" y="175" type="curve" smooth="yes"/>
      <point x="237" y="193"/>
      <point x="209" y="209"/>
      <point x="177" y="209" type="curve" smooth="yes"/>
      <point x="130" y="209"/>
      <point x="103" y="173"/>
      <point x="78" y="135" type="curve"/>
      <point x="44" y="164" type="line"/>
      <point x="74" y="223"/>
      <point x="124" y="261"/>
      <point x="183" y="261" type="curve" smooth="yes"/>
      <point x="232" y="261"/>
      <point x="266" y="236"/>
      <point x="293" y="222" type="curve" smooth="yes"/>
      <point x="326" y="204"/>
      <point x="350" y="186"/>
      <point x="386" y="186" type="curve" smooth="yes"/>
      <point x="427" y="186"/>
      <point x="452" y="212"/>
    </contour>
  </outline>
</glyph>
<glyph name="notequal" format="1">
  <advance width="559"/>
  <unicode hex="2260"/>
  <outline>
    <contour>
      <point x="400" y="503" type="line"/>
      <point x="356" y="407" type="line"/>
      <point x="508" y="407" type="line"/>
      <point x="508" y="354" type="line"/>
      <point x="335" y="354" type="line"/>
      <point x="269" y="210" type="line"/>
      <point x="508" y="210" type="line"/>
      <point x="508" y="157" type="line"/>
      <point x="248" y="157" type="line"/>
      <point x="195" y="40" type="line"/>
      <point x="152" y="59" type="line"/>
      <point x="197" y="157" type="line"/>
      <point x="50" y="157" type="line"/>
      <point x="50" y="210" type="line"/>
      <point x="219" y="210" type="line"/>
      <point x="284" y="354" type="line"/>
      <point x="50" y="354" type="line"/>
      <point x="50" y="407" type="line"/>
      <point x="305" y="407" type="line"/>
      <point x="357" y="522" type="line"/>
    </contour>
  </outline>
</glyph>
<glyph name="lessequal" format="1">
  <advance width="559"/>
  <unicode hex="2264"/>
  <outline>
    <contour>
      <point x="506" y="96" type="line"/>
      <point x="56" y="320" type="line"/>
      <point x="56" y="377" type="line"/>
      <point x="505" y="601" type="line"/>
      <point x="505" y="537" type="line"/>
      <point x="112" y="350" type="line"/>
      <point x="112" y="348" type="line"/>
      <point x="506" y="160" type="line"/>
    </contour>
    <contour>
      <point x="509" y="1" type="line"/>
      <point x="51" y="1" type="line"/>
      <point x="51" y="56" type="line"/>
      <point x="509" y="56" type="line"/>
    </contour>
  </outline>
</glyph>
<glyph name="greaterequal" format="1">
  <advance width="559"/>
  <unicode hex="2265"/>
  <outline>
    <contour>
      <point x="57" y="601" type="line"/>
      <point x="507" y="377" type="line"/>
      <point x="507" y="320" type="line"/>
      <point x="57" y="96" type="line"/>
      <point x="57" y="160" type="line"/>
      <point x="449" y="347" type="line"/>
      <point x="449" y="349" type="line"/>
      <point x="57" y="537" type="line"/>
    </contour>
    <contour>
      <point x="508" y="1" type="line"/>
      <point x="51" y="1" type="line"/>
      <point x="51" y="56" type="line"/>
      <point x="508" y="56" type="line"/>
    </contour>
  </outline>
</glyph>
<glyph name="lozenge" format="1">
  <advance width="575"/>
  <unicode hex="25CA"/>
  <outline>
    <contour>
      <point x="521" y="346" type="line"/>
      <point x="320" y="-46" type="line"/>
      <point x="251" y="-46" type="line"/>
      <point x="53" y="346" type="line"/>
      <point x="254" y="739" type="line"/>
      <point x="323" y="739" type="line"/>
    </contour>
    <contour>
      <point x="444" y="344" type="line"/>
      <point x="307" y="614" type="line" smooth="yes"/>
      <point x="300" y="631"/>
      <point x="292" y="653"/>
      <point x="288" y="668" type="curve"/>
      <point x="286" y="668" type="line"/>
      <point x="281" y="652"/>
      <point x="275" y="633"/>
      <point x="266" y="614" type="curve" smooth="yes"/>
      <point x="131" y="348" type="line"/>
      <point x="268" y="76" type="line" smooth="yes"/>
      <point x="276" y="56"/>
      <point x="283" y="37"/>
      <point x="285" y="24" type="curve"/>
      <point x="289" y="24" type="line"/>
      <point x="293" y="37"/>
      <point x="301" y="63"/>
      <point x="307" y="75" type="curve" smooth="yes"/>
    </contour>
  </outline>
</glyph>
<glyph name="f_i" format="1">
  <advance width="611"/>
  <outline>
    <contour>
      <point x="411" y="618" type="line"/>
      <point x="411" y="720" type="line"/>
      <point x="523" y="720" type="line"/>
      <point x="523" y="618" type="line"/>
    </contour>
    <contour>
      <point x="514" y="0" type="line"/>
      <point x="421" y="0" type="line"/>
      <point x="421" y="502" type="line"/>
      <point x="514" y="502" type="line"/>
    </contour>
    <contour>
      <point x="339" y="727" type="curve"/>
      <point x="339" y="652" type="line"/>
      <point x="323" y="653"/>
      <point x="303" y="654"/>
      <point x="284" y="654" type="curve" smooth="yes"/>
      <point x="208" y="654"/>
      <point x="208" y="616"/>
      <point x="208" y="581" type="curve" smooth="yes"/>
      <point x="208" y="502" type="line"/>
      <point x="325" y="502" type="line"/>
      <point x="325" y="434" type="line"/>
      <point x="208" y="434" type="line"/>
      <point x="208" y="0" type="line"/>
      <point x="115" y="0" type="line"/>
      <point x="115" y="434" type="line"/>
      <point x="16" y="434" type="line"/>
      <point x="16" y="502" type="line"/>
      <point x="115" y="502" type="line"/>
      <point x="115" y="559" type="line" smooth="yes"/>
      <point x="115" y="628"/>
      <point x="119" y="653"/>
      <point x="136" y="679" type="curve" smooth="yes"/>
      <point x="158" y="712"/>
      <point x="199" y="734"/>
      <point x="262" y="734" type="curve" smooth="yes"/>
      <point x="289" y="734"/>
      <point x="319" y="730"/>
    </contour>
  </outline>
</glyph>
<glyph name="f_l" format="1">
  <advance width="611"/>
  <outline>
    <contour>
      <point x="419" y="0" type="line"/>
      <point x="419" y="721" type="line"/>
      <point x="513" y="721" type="line"/>
      <point x="513" y="0" type="line"/>
    </contour>
    <contour>
      <point x="339" y="727" type="curve"/>
      <point x="339" y="652" type="line"/>
      <point x="323" y="653"/>
      <point x="303" y="654"/>
      <point x="284" y="654" type="curve" smooth="yes"/>
      <point x="208" y="654"/>
      <point x="208" y="616"/>
      <point x="208" y="581" type="curve" smooth="yes"/>
      <point x="208" y="502" type="line"/>
      <point x="325" y="502" type="line"/>
      <point x="325" y="434" type="line"/>
      <point x="208" y="434" type="line"/>
      <point x="208" y="0" type="line"/>
      <point x="115" y="0" type="line"/>
      <point x="115" y="434" type="line"/>
      <point x="16" y="434" type="line"/>
      <point x="16" y="502" type="line"/>
      <point x="115" y="502" type="line"/>
      <point x="115" y="559" type="line" smooth="yes"/>
      <point x="115" y="628"/>
      <point x="119" y="653"/>
      <point x="136" y="679" type="curve" smooth="yes"/>
      <point x="158" y="712"/>
      <point x="199" y="734"/>
      <point x="262" y="734" type="curve" smooth="yes"/>
      <point x="289" y="734"/>
      <point x="319" y="730"/>
    </contour>
  </outline>
</glyph>
<glyph name="o.superior" format="1">
  <advance width="367"/>
  <outline>
    <contour>
      <point x="208" y="740" type="curve" smooth="yes"/>
      <point x="344" y="740"/>
      <point x="370" y="641"/>
      <point x="370" y="581" type="curve" smooth="yes"/>
      <point x="370" y="489"/>
      <point x="310" y="420"/>
      <point x="207" y="420" type="curve" smooth="yes"/>
      <point x="90" y="420"/>
      <point x="44" y="497"/>
      <point x="44" y="578" type="curve" smooth="yes"/>
      <point x="44" y="661"/>
      <point x="91" y="740"/>
    </contour>
    <contour>
      <point x="206" y="463" type="curve" smooth="yes"/>
      <point x="253" y="463"/>
      <point x="305" y="495"/>
      <point x="305" y="583" type="curve" smooth="yes"/>
      <point x="305" y="633"/>
      <point x="288" y="698"/>
      <point x="209" y="698" type="curve" smooth="yes"/>
      <point x="137" y="698"/>
      <point x="108" y="638"/>
      <point x="108" y="582" type="curve" smooth="yes"/>
      <point x="108" y="531"/>
      <point x="130" y="463"/>
    </contour>
  </outline>
</glyph>
<glyph name="one.superior" format="1">
  <advance width="333"/>
  <outline>
    <contour>
      <point x="225" y="284" type="line"/>
      <point x="163" y="284" type="line"/>
      <point x="163" y="634" type="line"/>
      <point x="115" y="598"/>
      <point x="76" y="581"/>
      <point x="58" y="573" type="curve"/>
      <point x="58" y="634" type="line"/>
      <point x="92" y="650"/>
      <point x="125" y="666"/>
      <point x="167" y="699" type="curve"/>
      <point x="225" y="699" type="line"/>
    </contour>
  </outline>
</glyph>
